<?xml version="1.0" encoding="UTF-8"?>
<svg version="1.1" xmlns="http://www.w3.org/2000/svg" width="1469" height="1350">
<path d="M0 0 C87.4797195 -1.46307545 174.60496099 16.07003324 272.68701172 62.06640625 C273.65203613 62.5469043 274.61706055 63.02740234 275.61132812 63.52246094 C291.10049654 71.28939414 305.93501267 79.99686604 320.68701172 89.06640625 C319.45184245 92.31785989 318.08185277 95.28311156 316.28857422 98.26171875 C315.81548828 99.05006104 315.34240234 99.83840332 314.85498047 100.65063477 C314.09121094 101.90831665 314.09121094 101.90831665 313.31201172 103.19140625 C312.77962891 104.07304443 312.24724609 104.95468262 311.69873047 105.86303711 C306.65359101 114.18529142 301.46645866 122.41501017 296.23974609 130.62402344 C293.46158021 134.99395606 290.70049949 139.37468285 287.93701172 143.75390625 C286.92145696 145.36202353 285.90583876 146.97010075 284.89013672 148.578125 C284.4637793 149.25319092 284.03742187 149.92825684 283.59814453 150.6237793 C283.14713379 151.33787964 283.14713379 151.33787964 282.68701172 152.06640625 C276.81917885 148.92430462 271.02513551 145.69243596 265.28735352 142.31958008 C175.95252361 89.9361673 69.85579731 66.04961991 -93.00048828 84.69140625 C-93.70814331 84.83734222 -94.41579834 84.9832782 -95.14489746 85.13363647 C-102.97706612 86.76505116 -110.70063201 88.58492461 -118.31298828 91.06640625 C-117.79172363 91.56696533 -117.27045898 92.06752441 -116.73339844 92.58325195 C-111.09268375 98.03495452 -106.18715814 103.93031539 -101.31298828 110.06640625 C-100.4254194 111.16312633 -99.53738387 112.2594689 -98.64892578 113.35546875 C-77.75365243 139.30885719 -47.31298828 182.66159 -47.31298828 217.06640625 C-46.64879883 216.98076416 -45.98460937 216.89512207 -45.30029297 216.80688477 C-42.22153522 216.41149453 -39.14227099 216.02018626 -36.06298828 215.62890625 C-35.01884766 215.49419922 -33.97470703 215.35949219 -32.89892578 215.22070312 C-18.53302498 213.40279592 -4.40633487 212.8252285 10.06201172 212.81640625 C11.05844696 212.81573151 12.0548822 212.81505676 13.08151245 212.81436157 C95.49224484 212.90263197 178.301661 240.70478541 241.68701172 294.06640625 C242.52876953 294.73542969 243.37052734 295.40445312 244.23779297 296.09375 C259.51975884 308.25140285 274.07630021 322.1628381 286.68701172 337.06640625 C287.47205078 337.96230469 288.25708984 338.85820312 289.06591797 339.78125 C308.2905975 361.8595929 325.68865386 387.16143238 337.83154297 413.85546875 C338.35176025 414.99242187 338.87197754 416.129375 339.40795898 417.30078125 C340.40689609 419.51589197 341.38125343 421.74229727 342.32739258 423.98046875 C344.94895717 430.26945897 344.94895717 430.26945897 350.28076172 434.00390625 C351.74514919 434.37569911 353.21454949 434.72800475 354.68701172 435.06640625 C356.59526484 435.72020408 358.49580505 436.39674268 360.39013672 437.08984375 C361.43886963 437.46431641 362.48760254 437.83878906 363.56811523 438.22460938 C422.36228112 459.46021505 470.03632451 493.96528331 513.68701172 538.06640625 C508.07729566 475.51422994 492.45726277 415.84667401 465.68701172 359.06640625 C464.99937744 357.5983252 464.99937744 357.5983252 464.29785156 356.10058594 C446.93426818 319.31475053 423.73819159 285.22132356 397.68701172 254.06640625 C397.19523437 253.47553223 396.70345703 252.8846582 396.19677734 252.27587891 C385.54815323 239.5195665 374.15374122 227.46811169 362.43701172 215.69140625 C361.80496826 215.05468994 361.1729248 214.41797363 360.52172852 213.76196289 C359.93174072 213.17406982 359.34175293 212.58617676 358.73388672 211.98046875 C358.21665039 211.46436035 357.69941406 210.94825195 357.16650391 210.41650391 C355.52088025 208.84651176 355.52088025 208.84651176 352.68701172 207.06640625 C354.29816476 203.16815665 356.95220438 200.39546649 359.81201172 197.37890625 C360.33553223 196.81929199 360.85905273 196.25967773 361.3984375 195.68310547 C363.15656629 193.80637072 364.92154945 191.93624235 366.68701172 190.06640625 C367.97374733 188.69817738 369.2601984 187.32968086 370.54638672 185.9609375 C373.24052022 183.09530818 375.93763252 180.23251863 378.63623047 177.37109375 C383.13948906 172.59199299 387.61663222 167.78867363 392.08300781 162.97509766 C395.22031699 159.60265621 398.40870139 156.30214112 401.68701172 153.06640625 C405.84405805 154.69134282 408.58296677 157.73863449 411.62451172 160.87890625 C412.13691406 161.40033203 412.64931641 161.92175781 413.17724609 162.45898438 C414.20147817 163.50143659 415.22394381 164.54562734 416.24462891 165.59155273 C419.60122811 169.02371519 423.01865288 172.39507811 426.42919922 175.7734375 C427.80685567 177.14187445 429.18445866 178.51036522 430.56201172 179.87890625 C431.58488281 180.88920898 431.58488281 180.88920898 432.62841797 181.91992188 C437.19636071 186.46611251 441.49684127 191.17159947 445.68701172 196.06640625 C446.66039509 197.18409474 447.63432663 198.30130614 448.60888672 199.41796875 C455.56043634 207.4426252 462.22989629 215.63970631 468.68701172 224.06640625 C469.53585937 225.16831299 469.53585937 225.16831299 470.40185547 226.29248047 C489.58737424 251.25944186 506.53156752 277.68500693 521.30664062 305.48632812 C522.57298398 307.85327482 523.86451019 310.20386175 525.16748047 312.55078125 C560.40077453 376.68168347 578.82310697 449.77591905 586.68701172 522.06640625 C586.82123535 523.29375488 586.95545898 524.52110352 587.09375 525.78564453 C590.77746935 561.63325944 589.7228617 598.45581658 586.44091797 634.2890625 C586.37939041 634.98287018 586.31786285 635.67667786 586.25447083 636.39151001 C585.98897316 639.28767614 585.6737582 642.14506727 585.19042969 645.01367188 C583.97691545 652.79047856 586.23943193 659.11488445 588.91329956 666.34082031 C590.24893944 669.96700909 591.50126411 673.62164223 592.75341797 677.27734375 C593.13440392 678.3863504 593.13440392 678.3863504 593.52308655 679.51776123 C605.21421321 713.98164447 609.11953804 750.48752204 608.99951172 786.69140625 C608.9976889 787.83593262 608.99586609 788.98045898 608.99398804 790.15966797 C608.94887749 806.99545198 608.44105698 823.4265991 605.68701172 840.06640625 C605.51540527 841.18160645 605.34379883 842.29680664 605.16699219 843.44580078 C602.50446091 860.65113027 598.67194252 877.38878401 593.68701172 894.06640625 C593.24881104 895.54173828 593.24881104 895.54173828 592.80175781 897.046875 C580.41831142 938.01960321 560.24782697 977.5121304 533.68701172 1011.06640625 C532.98318359 1011.97003906 532.27935547 1012.87367188 531.55419922 1013.8046875 C529.62723152 1016.25045419 527.66718447 1018.66354277 525.68701172 1021.06640625 C524.89294922 1022.03449219 524.09888672 1023.00257813 523.28076172 1024 C508.11382718 1042.31129901 491.41493885 1059.3811786 472.68701172 1074.06640625 C471.36239173 1075.13231406 470.03820829 1076.19876452 468.71435547 1077.265625 C438.28609368 1101.58717681 403.3267525 1120.90371963 366.68701172 1134.06640625 C365.22545654 1134.59210205 365.22545654 1134.59210205 363.734375 1135.12841797 C324.0755977 1149.21848971 282.40369778 1156.3239812 240.31201172 1156.25390625 C239.57412415 1156.25296967 238.83623657 1156.25203308 238.07598877 1156.25106812 C199.01944845 1156.14463131 160.94551668 1149.64513627 123.68701172 1138.06640625 C123.68701172 1140.04640625 123.68701172 1142.02640625 123.68701172 1144.06640625 C107.77959944 1147.07551507 91.90317224 1149.55362717 75.81201172 1151.31640625 C74.69360901 1151.44021667 74.69360901 1151.44021667 73.5526123 1151.56652832 C58.86488306 1153.17870479 44.23582306 1154.2158256 29.45263672 1154.26953125 C27.49556793 1154.2801207 27.49556793 1154.2801207 25.4989624 1154.29092407 C21.3116397 1154.31043348 17.12437563 1154.31561648 12.93701172 1154.31640625 C12.22178345 1154.31670082 11.50655518 1154.31699539 10.76965332 1154.31729889 C-11.39531036 1154.31877254 -33.30723136 1153.95814983 -55.31298828 1151.06640625 C-56.88704269 1150.86571025 -58.46109875 1150.66502721 -60.03515625 1150.46435547 C-119.04687914 1142.82875623 -176.1933101 1126.82999909 -230.31298828 1102.06640625 C-231.8842749 1101.34904297 -231.8842749 1101.34904297 -233.48730469 1100.6171875 C-261.36411807 1087.79861094 -288.08155003 1072.53125079 -313.31298828 1055.06640625 C-314.33682617 1054.35919434 -314.33682617 1054.35919434 -315.38134766 1053.63769531 C-346.35271794 1032.17556901 -374.65783602 1007.77206089 -401.31298828 981.19140625 C-401.85573395 980.65133942 -402.39847961 980.11127258 -402.95767212 979.55484009 C-408.96267823 973.57233783 -414.82485105 967.53306219 -420.31298828 961.06640625 C-421.35785788 959.87454102 -422.40472314 958.68442227 -423.45361328 957.49609375 C-430.23128698 949.76401513 -436.751889 941.88853259 -443.02197266 933.73974609 C-444.27216465 932.11931948 -445.53306106 930.50786818 -446.79736328 928.8984375 C-468.97911598 900.46482138 -487.70217161 869.69005154 -504.03466797 837.57177734 C-505.1470978 835.39153385 -506.27605254 833.22138158 -507.41455078 831.0546875 C-524.50672956 798.21012783 -536.6853579 762.73476797 -546.31298828 727.06640625 C-546.59867676 726.01727051 -546.88436523 724.96813477 -547.17871094 723.88720703 C-554.31882392 697.40552217 -559.21635042 670.30784366 -562.31298828 643.06640625 C-562.46396973 641.75752441 -562.61495117 640.44864258 -562.77050781 639.10009766 C-567.07798114 600.66074328 -567.63786448 560.51426536 -563.31298828 522.06640625 C-563.11165283 520.20846436 -563.11165283 520.20846436 -562.90625 518.31298828 C-560.43286861 495.73773955 -557.51862229 472.92571437 -551.78588867 450.93041992 C-550.76655461 444.75705499 -553.44549112 440.92707837 -556.75048828 435.94140625 C-595.6751713 375.0764643 -607.6178688 298.40462367 -592.49072266 228.05175781 C-584.48028831 193.08979004 -570.53834782 158.1717912 -549.31298828 129.06640625 C-548.85069824 128.42445313 -548.3884082 127.7825 -547.91210938 127.12109375 C-541.26054808 117.91773148 -534.2023395 109.13746517 -526.68847656 100.62548828 C-525.39830991 99.16311621 -524.11892459 97.69125234 -522.84033203 96.21875 C-518.96036209 91.80636566 -515.0089951 87.73822043 -510.51220703 83.95703125 C-507.86388083 81.68031743 -505.35171546 79.27716404 -502.81298828 76.87890625 C-448.81987369 26.85104599 -374.49331077 6.26000667 -302.31298828 8.06640625 C-267.7060251 9.58645391 -231.14149999 18.08567472 -200.1574707 33.71630859 C-199.4869165 34.03937988 -198.8163623 34.36245117 -198.12548828 34.6953125 C-197.55443359 34.9847876 -196.98337891 35.2742627 -196.39501953 35.57250977 C-190.8096748 36.89745728 -185.07982132 34.48498373 -179.84423828 32.625 C-178.38748653 32.12198446 -176.93052765 31.61956849 -175.47338867 31.11767578 C-174.71430206 30.85424377 -173.95521545 30.59081177 -173.17312622 30.31939697 C-117.56401048 11.10496157 -58.79867857 1.17857337 0 0 Z M-417.31298828 106.06640625 C-418.47958984 106.68 -419.64619141 107.29359375 -420.84814453 107.92578125 C-444.85969671 121.02791344 -466.6722713 140.43387839 -483.00585938 162.31933594 C-484.25556931 163.98966174 -485.52696869 165.64137789 -486.80126953 167.29296875 C-518.36228293 208.98064489 -530.81397665 264.58197635 -524.18798828 316.06640625 C-519.52439223 348.44180753 -507.86966657 380.63223205 -488.31298828 407.06640625 C-487.92933105 407.58847656 -487.54567383 408.11054688 -487.15039062 408.6484375 C-482.19631511 415.35597692 -476.99803426 421.73048955 -471.32080078 427.84765625 C-469.91825046 429.39755621 -468.57536441 431.00262116 -467.28173828 432.64453125 C-465.52464579 434.80603392 -463.81024297 436.52829379 -461.68798828 438.31640625 C-459.46892394 440.20281378 -457.28527664 442.09260359 -455.16845703 444.09375 C-417.43806113 479.63873966 -363.54425964 497.03811758 -312.31298828 496.06640625 C-255.68831172 493.73310171 -202.81297764 469.71997835 -164.31298828 428.06640625 C-161.18163901 424.49556937 -158.22016541 420.82151004 -155.31298828 417.06640625 C-154.66910156 416.23713623 -154.66910156 416.23713623 -154.01220703 415.39111328 C-120.20161285 371.5323418 -105.68785986 317.22071741 -111.89892578 262.26269531 C-117.59767974 218.27207804 -137.30985604 177.54899356 -167.86962891 145.57714844 C-168.84725666 144.55388042 -169.81978052 143.52571598 -170.78759766 142.49316406 C-183.81070784 128.6361031 -198.87934837 117.56584238 -215.31298828 108.06640625 C-216.02084473 107.65293945 -216.72870117 107.23947266 -217.45800781 106.81347656 C-236.92913775 95.58229055 -258.26273937 88.26145456 -280.31298828 84.06640625 C-281.15265137 83.90414551 -281.99231445 83.74188477 -282.85742188 83.57470703 C-328.77581368 75.09140452 -376.45573279 84.06886864 -417.31298828 106.06640625 Z M-10.87548828 254.94140625 C-12.08261475 255.01979736 -13.28974121 255.09818848 -14.53344727 255.17895508 C-22.86896027 255.76921511 -31.05739648 256.78053767 -39.31298828 258.06640625 C-39.30410583 258.67852463 -39.29522339 259.29064301 -39.28607178 259.92131042 C-38.48147629 318.06340853 -38.48147629 318.06340853 -43.31298828 341.06640625 C-43.52729492 342.1234375 -43.74160156 343.18046875 -43.96240234 344.26953125 C-53.14964602 388.56087193 -72.43874803 427.04674964 -99.31298828 463.06640625 C-98.03412059 465.87027683 -96.7091778 467.9188916 -94.52890015 470.09100342 C-93.9624025 470.6602504 -93.39590485 471.22949738 -92.8122406 471.81599426 C-92.19293167 472.42811264 -91.57362274 473.04023102 -90.93554688 473.67089844 C-89.95487495 474.65200844 -89.95487495 474.65200844 -88.95439148 475.65293884 C-86.7947769 477.81116139 -84.62816709 479.96221561 -82.46142578 482.11328125 C-80.96169212 483.60928434 -79.46239975 485.10572994 -77.96353149 486.6026001 C-74.01909016 490.5394085 -70.06867934 494.47017359 -66.11700439 498.39971924 C-62.08496675 502.41129123 -58.05859114 506.42853719 -54.03173828 510.4453125 C-46.13102615 518.3245807 -38.22399738 526.1974775 -30.31298828 534.06640625 C-29.18542949 533.10508166 -28.0585943 532.1429083 -26.93206787 531.18037415 C-26.30448452 530.64465444 -25.67690117 530.10893473 -25.03030014 529.55698109 C-23.25720919 528.01799169 -21.5829093 526.42467387 -19.95361328 524.734375 C-19.40084717 524.16799316 -18.84808105 523.60161133 -18.27856445 523.01806641 C-17.71242432 522.43589355 -17.14628418 521.8537207 -16.56298828 521.25390625 C-11.53906465 516.15561863 -6.41959943 511.49463557 -0.79736328 507.05859375 C1.48575478 505.22779153 3.61204713 503.31303014 5.74951172 501.31640625 C23.71729777 485.22822902 45.418608 472.26747259 66.68701172 461.06640625 C67.50298828 460.63118652 68.31896484 460.1959668 69.15966797 459.74755859 C134.62354036 425.02921864 210.22583307 412.35210217 283.60498047 420.6640625 C286.97975835 421.03263095 290.28891405 421.14770045 293.68701172 421.06640625 C285.15788759 397.67726174 265.32632873 376.05485707 248.68701172 358.06640625 C247.70701669 356.98382221 246.72790613 355.90043708 245.74951172 354.81640625 C240.95549789 349.52791552 236.20042397 344.36369831 230.71044922 339.78125 C228.31090317 337.74765788 226.04307621 335.59377533 223.74951172 333.44140625 C168.19583521 282.93806397 93.00149951 256.5100161 18.68701172 254.06640625 C17.50494141 254.02386719 16.32287109 253.98132813 15.10498047 253.9375 C6.42060946 253.78585208 -2.21332968 254.36933043 -10.87548828 254.94140625 Z M-488.31298828 511.06640625 C-488.79807215 514.94068853 -489.274904 518.81594733 -489.75048828 522.69140625 C-489.88519531 523.76648438 -490.01990234 524.8415625 -490.15869141 525.94921875 C-492.21095583 542.767776 -492.55459508 559.38874293 -492.56298828 576.31640625 C-492.56366302 577.53949493 -492.56433777 578.76258362 -492.56503296 580.0227356 C-492.52119099 630.17425645 -485.09321515 679.0765386 -470.31298828 727.06640625 C-469.96896973 728.18370117 -469.62495117 729.30099609 -469.27050781 730.45214844 C-457.49339746 768.19380651 -441.01062704 804.39211456 -420.31298828 838.06640625 C-419.7910791 838.92153809 -419.26916992 839.77666992 -418.73144531 840.65771484 C-411.71193698 852.12090812 -404.22011952 863.19837954 -396.31298828 874.06640625 C-395.17603516 875.63261719 -395.17603516 875.63261719 -394.01611328 877.23046875 C-385.7297252 888.45035918 -376.96343621 899.40114291 -367.50830078 909.66015625 C-365.63766174 911.71053641 -363.80704801 913.78569877 -361.98486328 915.87890625 C-350.79684348 928.69075316 -338.84147828 940.57177267 -326.31298828 952.06640625 C-325.35263672 952.95328125 -324.39228516 953.84015625 -323.40283203 954.75390625 C-317.55796218 960.08931835 -311.5003282 965.13462595 -305.31298828 970.06640625 C-304.69488281 970.56237305 -304.07677734 971.05833984 -303.43994141 971.56933594 C-226.05986752 1033.48088586 -131.9196481 1070.72284278 -33.31298828 1080.06640625 C-32.34272705 1080.15849365 -31.37246582 1080.25058105 -30.37280273 1080.34545898 C-20.42893268 1081.19986829 -10.47377751 1081.39915017 -0.50048828 1081.62890625 C1.2710037 1081.67221624 3.04248818 1081.71583392 4.81396484 1081.75976562 C9.10490248 1081.86552014 13.39591945 1081.96713304 17.68701172 1082.06640625 C14.42594881 1078.73551048 10.95160449 1075.88629384 7.24951172 1073.06640625 C0.52249529 1067.86652784 -5.68814555 1062.24190542 -11.8671875 1056.41064453 C-13.92905236 1054.49361854 -16.05848748 1052.65764975 -18.18798828 1050.81640625 C-21.65006218 1047.7649798 -24.66524508 1044.51018032 -27.64111328 1040.98828125 C-29.24740462 1039.14179681 -30.92616442 1037.45107602 -32.68798828 1035.75390625 C-36.36522504 1032.1255906 -39.59161516 1028.20020252 -42.82080078 1024.171875 C-44.5249575 1022.04835684 -46.24180223 1019.95081475 -47.99267578 1017.8671875 C-65.81148186 996.44533658 -80.32223584 972.17242002 -92.31298828 947.06640625 C-92.66522461 946.3305127 -93.01746094 945.59461914 -93.38037109 944.83642578 C-95.11673448 941.19903053 -96.84248755 937.55668829 -98.55126953 933.90625 C-98.86128906 933.26469971 -99.17130859 932.62314941 -99.49072266 931.9621582 C-100.31298828 930.06640625 -100.31298828 930.06640625 -101.30126953 926.35546875 C-104.52749973 921.08073899 -109.48387349 920.31054901 -115.18798828 918.50390625 C-130.54792038 913.23420577 -144.87170717 906.45673409 -159.31298828 899.06640625 C-160.18246094 898.62329102 -161.05193359 898.18017578 -161.94775391 897.72363281 C-199.18536779 878.51670063 -233.6986682 850.53297312 -261.31298828 819.06640625 C-261.76834961 818.55045898 -262.22371094 818.03451172 -262.69287109 817.50292969 C-323.52541016 748.22022927 -354.01321098 657.78397502 -352.31298828 566.06640625 C-352.9038623 565.98189209 -353.49473633 565.89737793 -354.10351562 565.81030273 C-384.9200139 561.29689463 -414.2677773 552.61357438 -442.31298828 539.06640625 C-443.1002832 538.68645508 -443.88757813 538.30650391 -444.69873047 537.91503906 C-457.20452651 531.79429927 -468.69592851 524.43461913 -480.15527344 516.54785156 C-482.85668668 514.69311344 -485.58106185 512.87580614 -488.31298828 511.06640625 Z M-159.87548828 518.94140625 C-172.59203349 527.936738 -186.20626257 535.48769769 -200.31298828 542.06640625 C-201.08030273 542.42589355 -201.84761719 542.78538086 -202.63818359 543.15576172 C-236.813616 558.96755853 -273.80622937 566.4668533 -311.31298828 568.06640625 C-312.08122178 619.60896433 -302.77850869 669.3970186 -280.31298828 716.06640625 C-279.93062012 716.8773877 -279.54825195 717.68836914 -279.15429688 718.52392578 C-267.00568951 744.24176418 -251.20649489 767.81121131 -232.31298828 789.06640625 C-231.66007812 789.80544189 -231.00716797 790.54447754 -230.33447266 791.3059082 C-218.63553097 804.44414782 -206.32998923 817.38477601 -192.31298828 828.06640625 C-191.31267578 828.88367188 -190.31236328 829.7009375 -189.28173828 830.54296875 C-169.28265211 846.85354 -145.66529132 863.06890769 -121.31298828 872.06640625 C-120.65298828 871.73640625 -119.99298828 871.40640625 -119.31298828 871.06640625 C-119.44874268 870.43476562 -119.58449707 869.803125 -119.72436523 869.15234375 C-123.04815423 853.53348931 -125.73126577 837.96162284 -127.31298828 822.06640625 C-127.40870117 821.12982178 -127.50441406 820.1932373 -127.60302734 819.22827148 C-128.55019452 808.71183016 -128.55652586 798.17973653 -128.56298828 787.62890625 C-128.56366302 786.6353009 -128.56433777 785.64169556 -128.56503296 784.61798096 C-128.49718798 721.42830449 -113.0887171 653.08712982 -77.91601562 599.73168945 C-75.84323579 596.65696365 -75.84323579 596.65696365 -75.53101444 593.09125137 C-76.44476905 590.72517279 -77.51373385 589.49089936 -79.30503845 587.70013428 C-80.26197853 586.73267273 -80.26197853 586.73267273 -81.23825073 585.7456665 C-82.29412888 584.70125397 -82.29412888 584.70125397 -83.37133789 583.63574219 C-84.10954269 582.89388672 -84.8477475 582.15203125 -85.60832214 581.38769531 C-88.05331047 578.93459274 -90.50900351 576.49252471 -92.96533203 574.05078125 C-94.66356131 572.35307039 -96.36127305 570.65484168 -98.05848694 568.95611572 C-101.61737977 565.39731265 -105.18139044 561.8437406 -108.74926758 558.29394531 C-113.33248826 553.73343754 -117.90452695 549.16191285 -122.47302914 544.58666611 C-125.97695183 541.07940972 -129.48582842 537.5771452 -132.9963398 534.07648468 C-134.68465461 532.39203056 -136.37160915 530.70621197 -138.05720329 529.01903534 C-140.40832413 526.66754557 -142.76580656 524.32263298 -145.12524414 521.97949219 C-145.82713867 521.27512024 -146.5290332 520.57074829 -147.25219727 519.84503174 C-147.89297714 519.21133667 -148.53375702 518.5776416 -149.19395447 517.92474365 C-149.7512622 517.36948879 -150.30856993 516.81423393 -150.88276577 516.24215317 C-154.28804417 513.44276667 -156.90395932 516.79178956 -159.87548828 518.94140625 Z " fill="#EDF4FE" transform="translate(721.31298828125,67.93359375)"/>
<path d="M0 0 C87.4797195 -1.46307545 174.60496099 16.07003324 272.68701172 62.06640625 C273.65203613 62.5469043 274.61706055 63.02740234 275.61132812 63.52246094 C291.10049654 71.28939414 305.93501267 79.99686604 320.68701172 89.06640625 C319.45184245 92.31785989 318.08185277 95.28311156 316.28857422 98.26171875 C315.81548828 99.05006104 315.34240234 99.83840332 314.85498047 100.65063477 C314.09121094 101.90831665 314.09121094 101.90831665 313.31201172 103.19140625 C312.77962891 104.07304443 312.24724609 104.95468262 311.69873047 105.86303711 C306.65359101 114.18529142 301.46645866 122.41501017 296.23974609 130.62402344 C293.46158021 134.99395606 290.70049949 139.37468285 287.93701172 143.75390625 C286.92145696 145.36202353 285.90583876 146.97010075 284.89013672 148.578125 C284.4637793 149.25319092 284.03742187 149.92825684 283.59814453 150.6237793 C283.14713379 151.33787964 283.14713379 151.33787964 282.68701172 152.06640625 C276.81917885 148.92430462 271.02513551 145.69243596 265.28735352 142.31958008 C175.95252361 89.9361673 69.85579731 66.04961991 -93.00048828 84.69140625 C-93.70814331 84.83734222 -94.41579834 84.9832782 -95.14489746 85.13363647 C-102.97706612 86.76505116 -110.70063201 88.58492461 -118.31298828 91.06640625 C-117.79172363 91.56696533 -117.27045898 92.06752441 -116.73339844 92.58325195 C-111.09268375 98.03495452 -106.18715814 103.93031539 -101.31298828 110.06640625 C-100.4254194 111.16312633 -99.53738387 112.2594689 -98.64892578 113.35546875 C-77.75365243 139.30885719 -47.31298828 182.66159 -47.31298828 217.06640625 C-46.64879883 216.98076416 -45.98460937 216.89512207 -45.30029297 216.80688477 C-42.22153522 216.41149453 -39.14227099 216.02018626 -36.06298828 215.62890625 C-35.01884766 215.49419922 -33.97470703 215.35949219 -32.89892578 215.22070312 C-18.53302498 213.40279592 -4.40633487 212.8252285 10.06201172 212.81640625 C11.05844696 212.81573151 12.0548822 212.81505676 13.08151245 212.81436157 C95.49224484 212.90263197 178.301661 240.70478541 241.68701172 294.06640625 C242.52876953 294.73542969 243.37052734 295.40445312 244.23779297 296.09375 C259.51975884 308.25140285 274.07630021 322.1628381 286.68701172 337.06640625 C287.47205078 337.96230469 288.25708984 338.85820312 289.06591797 339.78125 C315.74073274 370.41560759 338.72052147 407.37329135 351.93017578 445.87109375 C352.82764057 448.47432064 353.75361964 451.06679524 354.67919922 453.66015625 C367.68701172 490.30495402 367.68701172 490.30495402 367.68701172 503.06640625 C363.70815425 504.02602633 359.72887021 504.98386615 355.74951172 505.94140625 C354.07405273 506.34552734 354.07405273 506.34552734 352.36474609 506.7578125 C349.14020633 507.53321502 345.91369561 508.29998524 342.68701172 509.06640625 C341.3931958 509.38399902 341.3931958 509.38399902 340.07324219 509.70800781 C335.84831124 510.71305746 332.06724767 511.29103373 327.68701172 511.06640625 C327.47947266 510.03386719 327.27193359 509.00132812 327.05810547 507.9375 C320.48958574 476.29453018 309.47585759 443.11400717 291.15307617 416.23632812 C289.39566827 413.63518884 287.75241493 410.97553048 286.11352539 408.29882812 C275.02678236 390.20666228 262.07600636 373.65656913 247.68701172 358.06640625 C246.78087527 357.05835878 245.87599313 356.04918282 244.97216797 355.0390625 C240.4600119 350.01709341 235.93279504 345.15819873 230.74560547 340.81640625 C228.33664713 338.7685631 226.05513739 336.60488056 223.74951172 334.44140625 C168.19583521 283.93806397 93.00149951 257.5100161 18.68701172 255.06640625 C16.91390625 255.00259766 16.91390625 255.00259766 15.10498047 254.9375 C2.82122961 254.72299911 -9.4409032 255.88256984 -21.68066406 256.79638672 C-27.5571398 257.23323187 -33.43509628 257.64908434 -39.31298828 258.06640625 C-39.07286011 259.49122314 -39.07286011 259.49122314 -38.82788086 260.94482422 C-38.1631886 265.62941283 -38.11449871 270.28652944 -38.07470703 275.01171875 C-38.06491318 275.96673279 -38.05511932 276.92174683 -38.04502869 277.90570068 C-37.8711397 299.2913408 -38.05206131 320.0309167 -42.31298828 341.06640625 C-42.52729492 342.13358887 -42.74160156 343.20077148 -42.96240234 344.30029297 C-52.15643274 388.57751213 -71.4463473 427.05693497 -98.31298828 463.06640625 C-97.04343041 465.84513287 -95.74058746 467.88666554 -93.57600403 470.03717041 C-93.0196225 470.59485611 -92.46324097 471.15254181 -91.88999939 471.72712708 C-91.28168777 472.32667709 -90.67337616 472.92622711 -90.04663086 473.54394531 C-89.40409363 474.1851683 -88.7615564 474.8263913 -88.09954834 475.48704529 C-85.97342903 477.60667244 -83.84042428 479.7192341 -81.70751953 481.83203125 C-80.22448199 483.30879499 -78.74196069 484.78607732 -77.25993347 486.26385498 C-73.35251468 490.15796344 -69.4395789 494.04647682 -65.52502441 497.93341064 C-59.27631343 504.1390479 -53.03418252 510.35128424 -46.7954464 516.56694794 C-44.62269496 518.72954361 -42.44652264 520.88865154 -40.26997375 523.04742432 C-38.92196918 524.38859253 -37.57407823 525.72987495 -36.22631836 527.07128906 C-35.6281279 527.66274216 -35.02993744 528.25419525 -34.41362 528.86357117 C-31.53536763 531.73417658 -28.77860203 534.6514256 -26.13626099 537.7411499 C-21.12649583 543.53002426 -15.64614211 548.86452759 -10.22729492 554.265625 C-9.01424015 555.47839724 -7.80140644 556.69139063 -6.58877563 557.90458679 C-3.31673576 561.17691207 -0.04163499 564.4461579 3.23404765 567.71483612 C6.66446958 571.13898147 10.09203553 574.56598327 13.51991272 577.99267578 C20.00233733 584.47199973 26.4873055 590.94877163 32.9732042 597.42461777 C40.36094135 604.80115442 47.74581896 612.18055104 55.13046443 619.56018257 C70.31281316 634.73209556 85.49872763 649.90043518 100.68701172 665.06640625 C98.99696156 668.65456146 97.0086426 671.0147762 94.20898438 673.85083008 C93.75669968 674.31143829 93.30441498 674.77204651 92.83842468 675.24661255 C91.34804755 676.76100436 89.85019364 678.26770233 88.35107422 679.7734375 C87.30968745 680.82379231 86.26837792 681.87422371 85.22714233 682.92472839 C83.04690351 685.12143312 80.86233024 687.31372708 78.67529297 689.50366211 C75.86996318 692.31439402 73.08117171 695.14095123 70.29603004 697.9716692 C68.152918 700.14446618 65.99869682 702.30597984 63.84119797 704.46448326 C62.80763931 705.50225603 61.77821446 706.54416258 60.7530098 707.59018898 C59.32178767 709.04816072 57.87319384 710.48901849 56.42382812 711.92895508 C55.60379303 712.75406082 54.78375793 713.57916656 53.93887329 714.42927551 C51.68701172 716.06640625 51.68701172 716.06640625 49.86007118 715.96040058 C46.78431976 714.69503975 45.01098171 712.7552618 42.66619873 710.39962769 C42.17431572 709.90960239 41.68243271 709.41957709 41.17564416 708.91470253 C39.52736132 707.26902164 37.89004254 705.61284839 36.25244141 703.95654297 C35.07338056 702.77499895 33.8936509 701.59412202 32.71330261 700.41386414 C30.1710709 697.8689247 27.6336759 695.31929129 25.09990692 692.76592636 C21.08896097 688.72396767 17.06767837 684.69240032 13.04498291 680.66213989 C6.67750367 674.28015929 0.31728002 667.89100166 -6.04002357 661.49888623 C-17.40768721 650.0694203 -28.78737431 638.651932 -40.16997409 627.23734295 C-44.16155827 623.23396726 -48.14993537 619.22743164 -52.13561964 615.21818233 C-54.62447411 612.71542573 -57.11537639 610.21471419 -59.60672569 607.7144413 C-60.75565233 606.56047751 -61.90369539 605.40563317 -63.05075264 604.24981117 C-68.38639887 598.87408034 -73.73258058 593.58390749 -79.49352646 588.65792847 C-82.71885018 585.83666875 -85.71851041 582.79150599 -88.73876953 579.75415039 C-89.77927711 578.71386185 -89.77927711 578.71386185 -90.84080505 577.65255737 C-93.10474816 575.38792451 -95.36514087 573.11978376 -97.62548828 570.8515625 C-99.20567268 569.26951059 -100.78607981 567.68768113 -102.36669922 566.10606384 C-106.50509065 561.96387347 -110.64046883 557.81868768 -114.77520752 553.67285156 C-119.00341847 549.43436982 -123.2344988 545.19875454 -127.46533203 540.96289062 C-135.75068053 532.66685113 -144.03284566 524.36764143 -152.31298828 516.06640625 C-155.80442172 517.41291704 -158.56432341 518.82280088 -161.56298828 521.06640625 C-173.66321115 529.7017285 -186.85717958 536.79125455 -200.31298828 543.06640625 C-201.46395996 543.60563721 -201.46395996 543.60563721 -202.63818359 544.15576172 C-235.94095411 559.56380789 -274.41050666 569.53165184 -311.31298828 568.06640625 C-309.85467486 619.77132356 -301.9450324 669.05108584 -279.31298828 716.06640625 C-278.73943604 717.28287842 -278.73943604 717.28287842 -278.15429688 718.52392578 C-265.98366844 744.2883814 -250.1310712 767.69973257 -231.31298828 789.06640625 C-230.64912109 789.84113281 -229.98525391 790.61585938 -229.30126953 791.4140625 C-218.07936537 804.26744193 -205.87233731 816.69038136 -192.31298828 827.06640625 C-191.31138672 827.88496094 -190.30978516 828.70351563 -189.27783203 829.546875 C-168.66547369 846.35363823 -145.57862978 860.21990384 -121.34667969 871.11474609 C-119.05644721 872.18645392 -116.82077578 873.34651575 -114.57470703 874.5078125 C-108.97793241 877.32245556 -103.21321142 879.47810703 -97.31298828 881.56640625 C-96.212854 881.95731445 -95.11271973 882.34822266 -93.97924805 882.75097656 C-33.22815864 904.05658419 37.86588322 907.51981661 99.68701172 888.06640625 C100.7869043 887.72480469 101.88679687 887.38320313 103.02001953 887.03125 C147.24731689 873.16247219 188.43028003 852.40129389 223.20410156 821.38623047 C224.51757252 820.21721104 225.84542174 819.06439068 227.17529297 817.9140625 C239.30942613 807.28904842 250.79381124 795.80927861 260.68701172 783.06640625 C261.61098269 781.94014777 262.53828924 780.81662053 263.46826172 779.6953125 C275.44802597 765.17036109 285.41812498 749.42754897 294.68701172 733.06640625 C295.19627197 732.1856543 295.19627197 732.1856543 295.71582031 731.28710938 C318.19358569 692.29438374 330.30071304 646.76438312 333.68701172 602.06640625 C347.40887601 602.62648234 361.02685379 603.6537594 374.68701172 605.06640625 C373.80510605 621.1245247 371.79427577 636.54690604 368.30859375 652.24658203 C367.74213387 654.81634306 367.20591202 657.38981921 366.68310547 659.96875 C357.91248638 702.55843683 339.15959762 744.25265994 314.68701172 780.06640625 C314.19168945 780.79230957 313.69636719 781.51821289 313.18603516 782.26611328 C307.05895715 791.19608633 300.70321252 799.80775322 293.68701172 808.06640625 C292.88263672 809.04351563 292.07826172 810.020625 291.24951172 811.02734375 C279.72178573 824.98058181 267.26744246 838.09965507 253.68701172 850.06640625 C253.13867676 850.55415527 252.5903418 851.0419043 252.02539062 851.54443359 C216.12161455 883.39105192 172.58882902 908.9257742 126.68701172 923.06640625 C125.29433155 923.53422236 123.90247 924.00447932 122.51123047 924.4765625 C106.10639185 929.96033292 89.54533135 933.99907104 72.45552063 936.61901855 C69.80960044 937.04659606 67.18492422 937.54090125 64.5534668 938.04907227 C58.91654895 939.07659792 53.30600073 939.707178 47.59716797 940.16796875 C46.56624527 940.25164703 45.53532257 940.33532532 44.47315979 940.42153931 C32.69509275 941.30811245 20.93147087 941.46205065 9.12451172 941.44140625 C7.99492035 941.44119476 6.86532898 941.44098328 5.70150757 941.44076538 C-12.64652615 941.40664831 -30.24357665 940.36545296 -48.31298828 937.06640625 C-49.3988623 936.87916992 -50.48473633 936.69193359 -51.60351562 936.49902344 C-66.53941002 933.90245149 -81.08694715 930.17660423 -95.61425781 925.86572266 C-97.92516983 925.18127124 -100.2402595 924.51632764 -102.55908203 923.859375 C-168.0320351 904.57857821 -230.3073293 860.81102044 -272.31298828 807.06640625 C-272.77995117 806.47730469 -273.24691406 805.88820313 -273.72802734 805.28125 C-327.46270977 737.38420392 -355.01456846 653.56339866 -353.31298828 567.06640625 C-354.01568848 566.9463623 -354.71838867 566.82631836 -355.44238281 566.70263672 C-385.8443873 561.4486405 -414.47934666 553.51137633 -442.31298828 540.06640625 C-443.1002832 539.68645508 -443.88757813 539.30650391 -444.69873047 538.91503906 C-459.70011692 531.57287686 -474.46752291 522.79739173 -487.31298828 512.06640625 C-491.30838956 533.44605353 -491.69471174 555.32103174 -491.62548828 577.00390625 C-491.62275406 578.79732956 -491.62275406 578.79732956 -491.6199646 580.62698364 C-491.49245951 630.54875534 -484.0232383 679.3037462 -469.31298828 727.06640625 C-468.79696045 728.74234863 -468.79696045 728.74234863 -468.27050781 730.45214844 C-456.49339746 768.19380651 -440.01062704 804.39211456 -419.31298828 838.06640625 C-418.53012451 839.349104 -418.53012451 839.349104 -417.73144531 840.65771484 C-410.71193698 852.12090812 -403.22011952 863.19837954 -395.31298828 874.06640625 C-394.55501953 875.11054687 -393.79705078 876.1546875 -393.01611328 877.23046875 C-384.7297252 888.45035918 -375.96343621 899.40114291 -366.50830078 909.66015625 C-364.63888528 911.7091953 -362.80962945 913.7830506 -360.98876953 915.875 C-350.10925652 928.33398414 -338.52443591 939.91904078 -326.31298828 951.06640625 C-325.37455078 951.93136719 -324.43611328 952.79632812 -323.46923828 953.6875 C-317.60120109 959.0448694 -311.52531229 964.11471174 -305.31298828 969.06640625 C-304.69488281 969.56237305 -304.07677734 970.05833984 -303.43994141 970.56933594 C-224.41589705 1033.79622138 -127.67692003 1071.49856821 65.68463135 1078.84643555 C77.82559138 1077.42265322 89.91673956 1075.61485564 101.9440918 1073.43359375 C104.88791997 1073.03951119 107.72040951 1073.00526733 110.68701172 1073.06640625 C111.91614753 1079.30577708 113.14263464 1085.54566469 114.36743164 1091.78588867 C114.78286268 1093.90091243 115.19886133 1096.0158248 115.61547852 1098.13061523 C119.96380405 1120.20713198 119.96380405 1120.20713198 121.77107239 1131.07078552 C122.36903915 1134.67785995 122.36903915 1134.67785995 123.68701172 1138.06640625 C123.72700372 1140.06600637 123.73047971 1142.06687867 123.68701172 1144.06640625 C107.77959944 1147.07551507 91.90317224 1149.55362717 75.81201172 1151.31640625 C74.69360901 1151.44021667 74.69360901 1151.44021667 73.5526123 1151.56652832 C58.86488306 1153.17870479 44.23582306 1154.2158256 29.45263672 1154.26953125 C27.49556793 1154.2801207 27.49556793 1154.2801207 25.4989624 1154.29092407 C21.3116397 1154.31043348 17.12437563 1154.31561648 12.93701172 1154.31640625 C12.22178345 1154.31670082 11.50655518 1154.31699539 10.76965332 1154.31729889 C-11.39531036 1154.31877254 -33.30723136 1153.95814983 -55.31298828 1151.06640625 C-56.88704269 1150.86571025 -58.46109875 1150.66502721 -60.03515625 1150.46435547 C-119.04687914 1142.82875623 -176.1933101 1126.82999909 -230.31298828 1102.06640625 C-231.8842749 1101.34904297 -231.8842749 1101.34904297 -233.48730469 1100.6171875 C-261.36411807 1087.79861094 -288.08155003 1072.53125079 -313.31298828 1055.06640625 C-314.33682617 1054.35919434 -314.33682617 1054.35919434 -315.38134766 1053.63769531 C-346.35271794 1032.17556901 -374.65783602 1007.77206089 -401.31298828 981.19140625 C-401.85573395 980.65133942 -402.39847961 980.11127258 -402.95767212 979.55484009 C-408.96267823 973.57233783 -414.82485105 967.53306219 -420.31298828 961.06640625 C-421.35785788 959.87454102 -422.40472314 958.68442227 -423.45361328 957.49609375 C-430.23128698 949.76401513 -436.751889 941.88853259 -443.02197266 933.73974609 C-444.27216465 932.11931948 -445.53306106 930.50786818 -446.79736328 928.8984375 C-468.97911598 900.46482138 -487.70217161 869.69005154 -504.03466797 837.57177734 C-505.1470978 835.39153385 -506.27605254 833.22138158 -507.41455078 831.0546875 C-524.50672956 798.21012783 -536.6853579 762.73476797 -546.31298828 727.06640625 C-546.59867676 726.01727051 -546.88436523 724.96813477 -547.17871094 723.88720703 C-554.31882392 697.40552217 -559.21635042 670.30784366 -562.31298828 643.06640625 C-562.46396973 641.75752441 -562.61495117 640.44864258 -562.77050781 639.10009766 C-567.07798114 600.66074328 -567.63786448 560.51426536 -563.31298828 522.06640625 C-563.11165283 520.20846436 -563.11165283 520.20846436 -562.90625 518.31298828 C-560.43286861 495.73773955 -557.51862229 472.92571437 -551.78588867 450.93041992 C-550.76655461 444.75705499 -553.44549112 440.92707837 -556.75048828 435.94140625 C-595.6751713 375.0764643 -607.6178688 298.40462367 -592.49072266 228.05175781 C-584.48028831 193.08979004 -570.53834782 158.1717912 -549.31298828 129.06640625 C-548.85069824 128.42445313 -548.3884082 127.7825 -547.91210938 127.12109375 C-541.26054808 117.91773148 -534.2023395 109.13746517 -526.68847656 100.62548828 C-525.39830991 99.16311621 -524.11892459 97.69125234 -522.84033203 96.21875 C-518.96036209 91.80636566 -515.0089951 87.73822043 -510.51220703 83.95703125 C-507.86388083 81.68031743 -505.35171546 79.27716404 -502.81298828 76.87890625 C-448.81987369 26.85104599 -374.49331077 6.26000667 -302.31298828 8.06640625 C-267.7060251 9.58645391 -231.14149999 18.08567472 -200.1574707 33.71630859 C-199.4869165 34.03937988 -198.8163623 34.36245117 -198.12548828 34.6953125 C-197.55443359 34.9847876 -196.98337891 35.2742627 -196.39501953 35.57250977 C-190.8096748 36.89745728 -185.07982132 34.48498373 -179.84423828 32.625 C-178.38748653 32.12198446 -176.93052765 31.61956849 -175.47338867 31.11767578 C-174.71430206 30.85424377 -173.95521545 30.59081177 -173.17312622 30.31939697 C-117.56401048 11.10496157 -58.79867857 1.17857337 0 0 Z M-417.31298828 106.06640625 C-418.47958984 106.68 -419.64619141 107.29359375 -420.84814453 107.92578125 C-444.85969671 121.02791344 -466.6722713 140.43387839 -483.00585938 162.31933594 C-484.25556931 163.98966174 -485.52696869 165.64137789 -486.80126953 167.29296875 C-518.36228293 208.98064489 -530.81397665 264.58197635 -524.18798828 316.06640625 C-519.52439223 348.44180753 -507.86966657 380.63223205 -488.31298828 407.06640625 C-487.92933105 407.58847656 -487.54567383 408.11054688 -487.15039062 408.6484375 C-482.19631511 415.35597692 -476.99803426 421.73048955 -471.32080078 427.84765625 C-469.91825046 429.39755621 -468.57536441 431.00262116 -467.28173828 432.64453125 C-465.52464579 434.80603392 -463.81024297 436.52829379 -461.68798828 438.31640625 C-459.46892394 440.20281378 -457.28527664 442.09260359 -455.16845703 444.09375 C-417.43806113 479.63873966 -363.54425964 497.03811758 -312.31298828 496.06640625 C-255.68831172 493.73310171 -202.81297764 469.71997835 -164.31298828 428.06640625 C-161.18163901 424.49556937 -158.22016541 420.82151004 -155.31298828 417.06640625 C-154.66910156 416.23713623 -154.66910156 416.23713623 -154.01220703 415.39111328 C-120.20161285 371.5323418 -105.68785986 317.22071741 -111.89892578 262.26269531 C-117.59767974 218.27207804 -137.30985604 177.54899356 -167.86962891 145.57714844 C-168.84725666 144.55388042 -169.81978052 143.52571598 -170.78759766 142.49316406 C-183.81070784 128.6361031 -198.87934837 117.56584238 -215.31298828 108.06640625 C-216.02084473 107.65293945 -216.72870117 107.23947266 -217.45800781 106.81347656 C-236.92913775 95.58229055 -258.26273937 88.26145456 -280.31298828 84.06640625 C-281.15265137 83.90414551 -281.99231445 83.74188477 -282.85742188 83.57470703 C-328.77581368 75.09140452 -376.45573279 84.06886864 -417.31298828 106.06640625 Z " fill="#000000" transform="translate(721.31298828125,67.93359375)"/>
<path d="M0 0 C11.97343539 5.60727784 23.25729176 12.3218058 34.63867188 19.02832031 C40.57368607 22.50966652 46.53737404 25.94123452 52.5 29.375 C53.65789918 30.04228027 54.81577735 30.709597 55.97363281 31.37695312 C58.64877903 32.91850716 61.32422383 34.45953977 64 36 C57.88612301 48.67569351 49.36511013 59.74400623 41 71 C42.26955788 73.77872662 43.57240082 75.82025929 45.73698425 77.97076416 C46.57155655 78.80729271 46.57155655 78.80729271 47.42298889 79.66072083 C48.03130051 80.26027084 48.63961212 80.85982086 49.26635742 81.47753906 C49.90889465 82.11876205 50.55143188 82.75998505 51.21343994 83.42063904 C53.33955925 85.54026619 55.472564 87.65282785 57.60546875 89.765625 C59.08850629 91.24238874 60.57102759 92.71967107 62.05305481 94.19744873 C65.9604736 98.09155719 69.87340939 101.98007057 73.78796387 105.86700439 C80.03667486 112.07264165 86.27880576 118.28487799 92.51754189 124.50054169 C94.69029332 126.66313736 96.86646564 128.82224529 99.04301453 130.98101807 C100.3910191 132.32218628 101.73891005 133.6634687 103.08666992 135.00488281 C103.68486038 135.59633591 104.28305084 136.187789 104.89936829 136.79716492 C107.77762065 139.66777033 110.53438625 142.58501935 113.17672729 145.67474365 C118.18649245 151.46361801 123.66684618 156.79812134 129.08569336 162.19921875 C130.29874813 163.41199099 131.51158184 164.62498438 132.72421265 165.83818054 C135.99625252 169.11050582 139.27135329 172.37975165 142.54703593 175.64842987 C145.97745786 179.07257522 149.40502381 182.49957702 152.832901 185.92626953 C159.31532561 192.40559348 165.80029378 198.88236538 172.28619248 205.35821152 C179.67392963 212.73474817 187.05880724 220.11414479 194.44345272 227.49377632 C209.62580144 242.66568931 224.81171591 257.83402893 240 273 C238.30994984 276.58815521 236.32163088 278.94836995 233.52197266 281.78442383 C233.06968796 282.24503204 232.61740326 282.70564026 232.15141296 283.1802063 C230.66103583 284.69459811 229.16318192 286.20129608 227.6640625 287.70703125 C226.62267573 288.75738606 225.58136621 289.80781746 224.54013062 290.85832214 C222.35989179 293.05502687 220.17531852 295.24732083 217.98828125 297.43725586 C215.18295146 300.24798777 212.39415999 303.07454498 209.60901833 305.90526295 C207.46590628 308.07805993 205.3116851 310.23957359 203.15418625 312.39807701 C202.12062759 313.43584978 201.09120274 314.47775633 200.06599808 315.52378273 C198.63477596 316.98175447 197.18618212 318.42261224 195.73681641 319.86254883 C194.91678131 320.68765457 194.09674622 321.51276031 193.25186157 322.36286926 C191 324 191 324 189.17305946 323.89399433 C186.09730804 322.6286335 184.32397 320.68885555 181.97918701 318.33322144 C181.487304 317.84319614 180.99542099 317.35317084 180.48863244 316.84829628 C178.8403496 315.20261539 177.20303082 313.54644214 175.56542969 311.89013672 C174.38636884 310.7085927 173.20663918 309.52771577 172.02629089 308.34745789 C169.48405919 305.80251845 166.94666418 303.25288504 164.4128952 300.69952011 C160.40194925 296.65756142 156.38066665 292.62599407 152.35797119 288.59573364 C145.99049195 282.21375304 139.6302683 275.82459541 133.27296472 269.43247998 C121.90530108 258.00301405 110.52561397 246.58552575 99.14301419 235.1709367 C95.15143001 231.16756101 91.16305292 227.16102539 87.17736864 223.15177608 C84.68851417 220.64901948 82.19761189 218.14830794 79.70626259 215.64803505 C78.55733595 214.49407126 77.40929289 213.33922692 76.26223564 212.18340492 C70.92658941 206.80767409 65.5804077 201.51750124 59.81946182 196.59152222 C56.59413811 193.7702625 53.59447787 190.72509974 50.57421875 187.68774414 C49.88054703 186.99421844 49.18687531 186.30069275 48.47218323 185.58615112 C46.20824012 183.32151826 43.94784741 181.05337751 41.6875 178.78515625 C40.1073156 177.20310434 38.52690847 175.62127488 36.94628906 174.03965759 C32.80789763 169.89746722 28.67251946 165.75228143 24.53778076 161.60644531 C20.30956981 157.36796357 16.07848948 153.13234829 11.84765625 148.89648438 C3.56230775 140.60044488 -4.71985738 132.30123518 -13 124 C-16.49143344 125.34651079 -19.25133513 126.75639463 -22.25 129 C-34.35022287 137.63532225 -47.5441913 144.7248483 -61 151 C-61.76731445 151.3594873 -62.53462891 151.71897461 -63.32519531 152.08935547 C-96.62796583 167.49740164 -135.09751838 177.46524559 -172 176 C-170.54168658 227.70491731 -162.63204412 276.98467959 -140 324 C-139.61763184 324.81098145 -139.23526367 325.62196289 -138.84130859 326.45751953 C-126.67068016 352.22197515 -110.81808292 375.63332632 -92 397 C-91.33613281 397.77472656 -90.67226563 398.54945313 -89.98828125 399.34765625 C-78.76637709 412.20103568 -66.55934903 424.62397511 -53 435 C-51.99839844 435.81855469 -50.99679687 436.63710938 -49.96484375 437.48046875 C-29.35248541 454.28723198 -6.2656415 468.15349759 17.96630859 479.04833984 C20.25654107 480.12004767 22.4922125 481.2801095 24.73828125 482.44140625 C30.33505587 485.25604931 36.09977686 487.41170078 42 489.5 C43.10013428 489.8909082 44.20026855 490.28181641 45.33374023 490.68457031 C106.08482964 511.99017794 177.1788715 515.45341036 239 496 C240.09989258 495.65839844 241.19978516 495.31679688 242.33300781 494.96484375 C286.56030517 481.09606594 327.74326831 460.33488764 362.51708984 429.31982422 C363.83056081 428.15080479 365.15841002 426.99798443 366.48828125 425.84765625 C378.62241441 415.22264217 390.10679952 403.74287236 400 391 C400.92397097 389.87374152 401.85127752 388.75021428 402.78125 387.62890625 C414.76101426 373.10395484 424.73111326 357.36114272 434 341 C434.50926025 340.11924805 434.50926025 340.11924805 435.02880859 339.22070312 C457.50657397 300.22797749 469.61370132 254.69797687 473 210 C486.72186429 210.56007609 500.33984207 211.58735315 514 213 C513.11809433 229.05811845 511.10726405 244.48049979 507.62158203 260.18017578 C507.05512215 262.74993681 506.5189003 265.32341296 505.99609375 267.90234375 C497.22547466 310.49203058 478.4725859 352.18625369 454 388 C453.50467773 388.72590332 453.00935547 389.45180664 452.49902344 390.19970703 C446.37194544 399.12968008 440.0162008 407.74134697 433 416 C432.195625 416.97710938 431.39125 417.95421875 430.5625 418.9609375 C419.03477401 432.91417556 406.58043074 446.03324882 393 458 C392.45166504 458.48774902 391.90333008 458.97549805 391.33837891 459.47802734 C355.43460283 491.32464567 311.90181731 516.85936795 266 531 C264.60731983 531.46781611 263.21545828 531.93807307 261.82421875 532.41015625 C245.41938013 537.89392667 228.85831963 541.93266479 211.76850891 544.5526123 C209.12258873 544.98018981 206.4979125 545.474495 203.86645508 545.98266602 C198.22953723 547.01019167 192.61898901 547.64077175 186.91015625 548.1015625 C185.87923355 548.18524078 184.84831085 548.26891907 183.78614807 548.35513306 C172.00808103 549.2417062 160.24445915 549.3956444 148.4375 549.375 C147.30790863 549.37478851 146.17831726 549.37457703 145.01449585 549.37435913 C126.66646213 549.34024206 109.06941163 548.29904671 91 545 C89.91412598 544.81276367 88.82825195 544.62552734 87.70947266 544.43261719 C72.77357826 541.83604524 58.22604114 538.11019798 43.69873047 533.79931641 C41.38781846 533.11486499 39.07272878 532.44992139 36.75390625 531.79296875 C-28.71904682 512.51217196 -90.99434102 468.74461419 -133 415 C-133.46696289 414.41089844 -133.93392578 413.82179688 -134.41503906 413.21484375 C-188.14972149 345.31779767 -215.70158018 261.49699241 -214 175 C-214.7027002 174.87995605 -215.40540039 174.75991211 -216.12939453 174.63623047 C-249.82419396 168.81318189 -281.34366069 159.51799796 -311.6875 143.5625 C-312.31760986 143.23258057 -312.94771973 142.90266113 -313.59692383 142.56274414 C-317.87509458 140.24981084 -317.87509458 140.24981084 -319 138 C-317.97460938 135.79882812 -317.97460938 135.79882812 -316.34375 133.03125 C-315.74038818 131.99742187 -315.13702637 130.96359375 -314.51538086 129.8984375 C-313.85030518 128.77695312 -313.18522949 127.65546875 -312.5 126.5 C-311.81760845 125.33642521 -311.1360602 124.17235549 -310.45532227 123.0078125 C-309.03086117 120.57232888 -307.60271519 118.13905933 -306.17236328 115.70703125 C-304.05262976 112.09697678 -301.9576895 108.47303827 -299.87109375 104.84375 C-299.37284592 103.97731873 -299.37284592 103.97731873 -298.86453247 103.09338379 C-297.8886208 101.39572379 -296.91305721 99.69786371 -295.9375 98 C-291.69605815 90.62259848 -287.40626246 83.28034958 -283 76 C-278.31089176 77.41463143 -274.12639887 79.41159515 -269.8125 81.6875 C-222.4701145 105.86069194 -166.36348374 108.91069837 -115.87475586 93.35058594 C-67.82198395 77.72277797 -24.76233244 44.40502653 0 0 Z " fill="#000000" transform="translate(582,460)"/>
<path d="M0 0 C4.15704633 1.62493657 6.89595505 4.67222824 9.9375 7.8125 C10.44990234 8.33392578 10.96230469 8.85535156 11.49023438 9.39257812 C12.51446646 10.43503034 13.53693209 11.47922109 14.55761719 12.52514648 C17.91421639 15.95730894 21.33164116 19.32867186 24.7421875 22.70703125 C26.11984395 24.0754682 27.49744694 25.44395897 28.875 26.8125 C29.89787109 27.82280273 29.89787109 27.82280273 30.94140625 28.85351562 C35.50934899 33.39970626 39.80982955 38.10519322 44 43 C44.97338337 44.11768849 45.94731491 45.23489989 46.921875 46.3515625 C53.87342462 54.37621895 60.54288457 62.57330006 67 71 C67.56589844 71.73460449 68.13179687 72.46920898 68.71484375 73.22607422 C87.90036252 98.19303561 104.8445558 124.61860068 119.61962891 152.41992188 C120.88597227 154.78686857 122.17749847 157.1374555 123.48046875 159.484375 C158.71376282 223.61527722 177.13609526 296.7095128 185 369 C185.13422363 370.22734863 185.26844727 371.45469727 185.40673828 372.71923828 C191.68152347 433.78145867 185.92863422 496.37510409 172 556 C171.77489746 556.97308105 171.54979492 557.94616211 171.31787109 558.94873047 C167.906562 573.54090322 163.76645875 587.79677016 159 602 C158.66629395 603.00756348 158.33258789 604.01512695 157.98876953 605.05322266 C135.30029407 673.37250612 100.63051169 738.35047155 53.52734375 793.0390625 C51.22767272 795.73326751 49.01533638 798.47667481 46.8125 801.25 C36.40702128 813.96983213 24.59258763 825.49967215 13 837.125 C12.46375 837.66392883 11.9275 838.20285767 11.375 838.75811768 C5.43019152 844.72546507 -0.57520566 850.54501879 -7 856 C-8.19184539 857.04489222 -9.38196496 858.09175641 -10.5703125 859.140625 C-18.83549032 866.38690292 -27.270824 873.32195365 -36 880 C-36.71720215 880.55381348 -37.4344043 881.10762695 -38.17333984 881.67822266 C-55.67825566 895.17460537 -73.92645752 907.80900418 -93 919 C-93.72622559 919.42667969 -94.45245117 919.85335937 -95.20068359 920.29296875 C-118.59323389 933.98433914 -142.63814269 946.27142317 -167.5 957.0625 C-168.85472412 957.65454224 -168.85472412 957.65454224 -170.23681641 958.25854492 C-171.07647949 958.61795166 -171.91614258 958.9773584 -172.78125 959.34765625 C-173.52439453 959.66742432 -174.26753906 959.98719238 -175.03320312 960.31665039 C-177 961 -177 961 -180 961 C-180.25990723 960.27449951 -180.51981445 959.54899902 -180.78759766 958.80151367 C-182.06030266 955.26116502 -183.34060008 951.72361828 -184.625 948.1875 C-184.98132507 947.20515884 -184.98132507 947.20515884 -185.34484863 946.20297241 C-188.38311828 937.8500039 -191.5414336 929.55703802 -194.8828125 921.3203125 C-195.2050882 920.52464371 -195.52736389 919.72897491 -195.85940552 918.90919495 C-197.44734179 914.99674593 -199.04882828 911.09042847 -200.66650391 907.19018555 C-201.25185167 905.75839236 -201.83698616 904.32651197 -202.421875 902.89453125 C-202.83664597 901.91209946 -202.83664597 901.91209946 -203.25979614 900.90982056 C-205.11321357 896.33964071 -205.11321357 896.33964071 -204 893 C-202.00756836 891.90356445 -202.00756836 891.90356445 -199.33984375 890.86328125 C-197.83248657 890.25758301 -197.83248657 890.25758301 -196.29467773 889.63964844 C-194.63287476 888.98270996 -194.63287476 888.98270996 -192.9375 888.3125 C-161.10715316 875.25366792 -131.28048099 858.5890636 -103 839 C-102.37593262 838.56880859 -101.75186523 838.13761719 -101.10888672 837.69335938 C-92.13805423 831.46567401 -83.51373628 824.83605199 -75 818 C-74.01902344 817.21496094 -73.03804687 816.42992187 -72.02734375 815.62109375 C-66.65308953 811.27482627 -61.45199167 806.78061267 -56.34375 802.125 C-54.19307289 800.17505276 -52.01175029 798.26973871 -49.8125 796.375 C-46.64810024 793.6227966 -43.69619843 790.72039121 -40.76171875 787.7265625 C-39.01153656 786.01130634 -37.19109165 784.44759425 -35.3125 782.875 C-29.93994624 778.23883874 -25.28390103 772.93656521 -20.53027344 767.68310547 C-19.06482983 766.07130453 -17.58646856 764.47277299 -16.1015625 762.87890625 C-10.1311796 756.46027771 -4.47932041 749.84462962 1 743 C1.93404903 741.85738016 2.86899094 740.71548981 3.8046875 739.57421875 C11.32547558 730.35443142 18.27247448 720.81077991 25 711 C25.43022461 710.37657715 25.86044922 709.7531543 26.30371094 709.11083984 C49.15046762 675.91081052 67.64741753 639.80128392 81.82470703 602.11621094 C82.87436996 599.33309967 83.94581603 596.5599007 85.02734375 593.7890625 C89.22641571 582.90344917 92.37638025 571.85439322 95.31347656 560.56933594 C95.92932879 558.26448926 96.58570108 555.97954159 97.2734375 553.6953125 C109.73924352 512.0587308 114.14479628 467.02356126 114.1875 423.75 C114.18867828 422.83016327 114.18985657 421.91032654 114.19107056 420.96261597 C114.18029501 346.854209 95.49604211 272.80377037 64 206 C63.31236572 204.53191895 63.31236572 204.53191895 62.61083984 203.03417969 C45.24725646 166.24834428 22.05117987 132.15491731 -4 101 C-4.49177734 100.40912598 -4.98355469 99.81825195 -5.49023438 99.20947266 C-16.13885849 86.45316025 -27.5332705 74.40170544 -39.25 62.625 C-40.19806519 61.66992554 -40.19806519 61.66992554 -41.1652832 60.69555664 C-41.755271 60.10766357 -42.34525879 59.51977051 -42.953125 58.9140625 C-43.47036133 58.3979541 -43.98759766 57.8818457 -44.52050781 57.35009766 C-46.16613147 55.78010551 -46.16613147 55.78010551 -49 54 C-47.38884696 50.1017504 -44.73480734 47.32906024 -41.875 44.3125 C-41.35147949 43.75288574 -40.82795898 43.19327148 -40.28857422 42.61669922 C-38.53044543 40.73996447 -36.76546227 38.8698361 -35 37 C-33.71326439 35.63177113 -32.42681332 34.26327461 -31.140625 32.89453125 C-28.4464915 30.02890193 -25.7493792 27.16611238 -23.05078125 24.3046875 C-18.54752265 19.52558674 -14.07037949 14.72226738 -9.60400391 9.90869141 C-6.46669473 6.53624996 -3.27831033 3.23573487 0 0 Z " fill="#000000" transform="translate(1123,221)"/>
<path d="M0 0 C3.54756786 3.41016206 6.56715941 6.92771797 9.5 10.875 C22.61741954 28.180152 38.37713742 48.12389512 57.26171875 59.34375 C59.45918091 60.75979634 60.68408845 61.73293835 62 64 C62.33457669 67.50578179 62.01818662 70.66901822 61.58374023 74.16430664 C59.23750346 93.04595 58.62681303 111.92851103 58.6875 130.9375 C58.69023422 132.73092331 58.69023422 132.73092331 58.69302368 134.56057739 C58.82052877 184.48234909 66.28974999 233.23733995 81 281 C81.34401855 282.11729492 81.68803711 283.23458984 82.04248047 284.38574219 C93.81959082 322.12740026 110.30236124 358.32570831 131 392 C131.52190918 392.85513184 132.04381836 393.71026367 132.58154297 394.59130859 C139.6010513 406.05450187 147.09286876 417.13197329 155 428 C156.13695312 429.56621094 156.13695312 429.56621094 157.296875 431.1640625 C165.58326308 442.38395293 174.34955207 453.33473666 183.8046875 463.59375 C185.674103 465.64278905 187.50335883 467.71664435 189.32421875 469.80859375 C200.20373176 482.26757789 211.78855237 493.85263453 224 505 C224.9384375 505.86496094 225.876875 506.72992187 226.84375 507.62109375 C232.71178719 512.97846315 238.78767599 518.04830549 245 523 C245.61810547 523.4959668 246.23621094 523.99193359 246.87304688 524.50292969 C325.89709123 587.72981513 422.63606825 625.43216196 615.99761963 632.7800293 C628.13857966 631.35624697 640.22972784 629.54844939 652.25708008 627.3671875 C655.20090825 626.97310494 658.03339779 626.93886108 661 627 C662.22913581 633.23937083 663.45562293 639.47925844 664.68041992 645.71948242 C665.09585096 647.83450618 665.51184961 649.94941855 665.9284668 652.06420898 C670.27679233 674.14072573 670.27679233 674.14072573 672.08406067 685.00437927 C672.68202743 688.6114537 672.68202743 688.6114537 674 692 C674.039992 693.99960012 674.04346799 696.00047242 674 698 C658.09258772 701.00910882 642.21616052 703.48722092 626.125 705.25 C625.00659729 705.37381042 625.00659729 705.37381042 623.86560059 705.50012207 C609.17787134 707.11229854 594.54881134 708.14941935 579.765625 708.203125 C578.46091248 708.21018463 577.15619995 708.21724426 575.81195068 708.22451782 C571.62462798 708.24402723 567.43736391 708.24921023 563.25 708.25 C562.53477173 708.25029457 561.81954346 708.25058914 561.0826416 708.25089264 C538.91767792 708.25236629 517.00575692 707.89174358 495 705 C493.42594559 704.799304 491.85188953 704.59862096 490.27783203 704.39794922 C431.26610914 696.76234998 374.11967818 680.76359284 320 656 C318.42871338 655.28263672 318.42871338 655.28263672 316.82568359 654.55078125 C288.94887021 641.73220469 262.23143826 626.46484454 237 609 C236.31744141 608.52852539 235.63488281 608.05705078 234.93164062 607.57128906 C203.96027034 586.10916276 175.65515226 561.70565464 149 535.125 C148.45725433 534.58493317 147.91450867 534.04486633 147.35531616 533.48843384 C141.35031005 527.50593158 135.48813723 521.46665594 130 515 C128.9551304 513.80813477 127.90826514 512.61801602 126.859375 511.4296875 C120.0817013 503.69760888 113.56109928 495.82212634 107.29101562 487.67333984 C106.04082363 486.05291323 104.77992722 484.44146193 103.515625 482.83203125 C81.3338723 454.39841513 62.61081667 423.62364529 46.27832031 391.50537109 C45.16589048 389.3251276 44.03693575 387.15497533 42.8984375 384.98828125 C25.80625872 352.14372158 13.62763038 316.66836172 4 281 C3.71431152 279.95086426 3.42862305 278.90172852 3.13427734 277.82080078 C-4.00583564 251.33911592 -8.90336214 224.24143741 -12 197 C-12.15098145 195.69111816 -12.30196289 194.38223633 -12.45751953 193.03369141 C-16.76499286 154.59433703 -17.32487619 114.44785911 -13 76 C-12.86577637 74.76137207 -12.73155273 73.52274414 -12.59326172 72.24658203 C-9.94493986 48.07593261 -7.19746894 23.28119841 0 0 Z " fill="#000000" transform="translate(171,514)"/>
<path d="M0 0 C19.94052886 9.81952609 37.64821105 24.60732026 53.66015625 39.84765625 C56.14629642 42.21228554 58.68328744 44.48150073 61.3125 46.6875 C95.12762003 76.07617728 120.35409244 125.17844412 131 168 C131 168.99 131 169.98 131 171 C131.66418945 170.91435791 132.32837891 170.82871582 133.01269531 170.74047852 C136.09145306 170.34508828 139.17071729 169.95378001 142.25 169.5625 C143.81621094 169.36043945 143.81621094 169.36043945 145.4140625 169.15429688 C159.7799633 167.33638967 173.90665341 166.75882225 188.375 166.75 C189.86965286 166.74898788 189.86965286 166.74898788 191.39450073 166.74795532 C273.80523312 166.83622572 356.61464928 194.63837916 420 248 C420.84175781 248.66902344 421.68351562 249.33804688 422.55078125 250.02734375 C437.83274712 262.1849966 452.38928849 276.09643185 465 291 C465.78503906 291.89589844 466.57007813 292.79179687 467.37890625 293.71484375 C494.05372102 324.34920134 517.03350975 361.3068851 530.24316406 399.8046875 C531.14062885 402.40791439 532.06660792 405.00038899 532.9921875 407.59375 C546 444.23854777 546 444.23854777 546 457 C542.02114253 457.95962008 538.04185849 458.9174599 534.0625 459.875 C532.38704102 460.27912109 532.38704102 460.27912109 530.67773438 460.69140625 C527.45319461 461.46680877 524.22668389 462.23357899 521 463 C519.70618408 463.31759277 519.70618408 463.31759277 518.38623047 463.64160156 C514.16129953 464.64665121 510.38023595 465.22462748 506 465 C505.79246094 463.96746094 505.58492187 462.93492187 505.37109375 461.87109375 C498.80257402 430.22812393 487.78884587 397.04760092 469.46606445 370.16992188 C467.70865655 367.56878259 466.06540321 364.90912423 464.42651367 362.23242188 C453.33977064 344.14025603 440.38899464 327.59016288 426 312 C425.09386355 310.99195253 424.18898141 309.98277657 423.28515625 308.97265625 C418.77300018 303.95068716 414.24578332 299.09179248 409.05859375 294.75 C406.64963541 292.70215685 404.36812567 290.53847431 402.0625 288.375 C346.5088235 237.87165772 271.31448779 211.44360985 197 209 C195.81792969 208.95746094 194.63585937 208.91492188 193.41796875 208.87109375 C181.13421789 208.65659286 168.87208508 209.81616359 156.63232422 210.72998047 C150.75584848 211.16682562 144.877892 211.58267809 139 212 C139.16008545 212.94987793 139.3201709 213.89975586 139.48510742 214.87841797 C140.14979968 219.56300658 140.19848957 224.22012319 140.23828125 228.9453125 C140.2480751 229.90032654 140.25786896 230.85534058 140.26795959 231.83929443 C140.44184858 253.22493455 140.26092697 273.96451045 136 295 C135.78569336 296.06718262 135.57138672 297.13436523 135.35058594 298.23388672 C129.22186611 327.7489807 118.5977864 355.66876827 104 382 C100.19439766 381.41933397 97.473423 380.33578266 94.17578125 378.3671875 C93.24193604 377.81538818 92.30809082 377.26358887 91.34594727 376.69506836 C90.34490967 376.0944458 89.34387207 375.49382324 88.3125 374.875 C86.16188072 373.60215064 84.01082299 372.33004186 81.859375 371.05859375 C80.73982422 370.39456543 79.62027344 369.73053711 78.46679688 369.04638672 C72.69253437 365.62999573 66.87587157 362.28672979 61.0625 358.9375 C59.99233643 358.3192334 58.92217285 357.7009668 57.81958008 357.06396484 C51.90940499 353.65437388 45.97814243 350.28906493 40 347 C40.78754518 342.50568479 42.43894617 338.93804336 44.5625 334.9375 C69.67256506 285.840085 73.3243218 229.45955344 56.4375 177.0625 C46.49217632 147.67508139 30.75705669 121.82492259 9.39599609 99.46337891 C8.46646889 98.4889847 7.54227418 97.5094751 6.62353516 96.52490234 C-5.8552577 83.17518915 -20.70130918 72.86509466 -36 63 C-34.63527177 59.36739655 -33.0019884 56.09038593 -31.05078125 52.73828125 C-30.45692627 51.71379883 -29.86307129 50.68931641 -29.2512207 49.63378906 C-28.61144287 48.53776367 -27.97166504 47.44173828 -27.3125 46.3125 C-26.30452798 44.57695165 -25.29656249 42.84139946 -24.28898621 41.10562134 C-23.59168876 39.90482089 -22.89393904 38.70428298 -22.195755 37.5039978 C-19.7210338 33.24871786 -17.26245759 28.98442284 -14.8125 24.71484375 C-14.13503757 23.53538442 -13.45754772 22.35594084 -12.7800293 21.17651367 C-11.49379782 18.93650142 -10.20875393 16.69580672 -8.92504883 14.4543457 C-6.0906146 9.52741266 -3.24416509 4.66902171 0 0 Z " fill="#2424BE" transform="translate(543,114)"/>
<path d="M0 0 C3.63260345 1.36472823 6.90961407 2.9980116 10.26171875 4.94921875 C11.79844238 5.84000122 11.79844238 5.84000122 13.36621094 6.7487793 C14.46223633 7.38855713 15.55826172 8.02833496 16.6875 8.6875 C18.42304835 9.69547202 20.15860054 10.70343751 21.89437866 11.71101379 C23.09517911 12.40831124 24.29571702 13.10606096 25.4960022 13.804245 C29.75128214 16.2789662 34.01557716 18.73754241 38.28515625 21.1875 C39.46461558 21.86496243 40.64405916 22.54245228 41.82348633 23.2199707 C44.06349858 24.50620218 46.30419328 25.79124607 48.5456543 27.07495117 C53.47258734 29.9093854 58.33097829 32.75583491 63 36 C62.39270886 40.55468355 60.49915865 44.18509624 58.375 48.1875 C33.41335936 96.79760398 30.46632334 153.91991127 46.86279297 205.72607422 C53.13299363 224.50201506 62.20751777 243.06045625 74 259 C74.38365723 259.52207031 74.76731445 260.04414063 75.16259766 260.58203125 C81.14549971 268.6825439 87.39981955 276.73657873 94.75390625 283.6484375 C96 285 96 285 96 287 C96.59425781 287.26167969 97.18851563 287.52335937 97.80078125 287.79296875 C100.13388034 289.07347962 101.41270188 290.34378094 103.1875 292.3125 C113.56161719 302.93775969 126.39382892 311.26848144 139 319 C138.32313971 322.48616154 136.93012425 325.17749011 135.19140625 328.26171875 C134.61422852 329.28974609 134.03705078 330.31777344 133.44238281 331.37695312 C132.82202148 332.46943359 132.20166016 333.56191406 131.5625 334.6875 C130.92795898 335.81220703 130.29341797 336.93691406 129.63964844 338.09570312 C124.92451408 346.42998305 120.11948675 354.70625431 115.22070312 362.93359375 C113.87722729 365.20782964 112.55455956 367.49341974 111.234375 369.78125 C110.77708008 370.57015625 110.31978516 371.3590625 109.84863281 372.171875 C108.96898412 373.6903996 108.09314595 375.21113985 107.22167969 376.734375 C104.22458375 381.88770812 104.22458375 381.88770812 102 383 C100.1875 382.13891602 100.1875 382.13891602 98 380.75390625 C97.20037842 380.25052734 96.40075684 379.74714844 95.5769043 379.22851562 C94.72652588 378.67873047 93.87614746 378.12894531 93 377.5625 C92.13221924 377.00626953 91.26443848 376.45003906 90.37036133 375.87695312 C84.26322096 371.91903544 78.50565896 367.7656984 73 363 C71.9057743 362.07584357 70.81065334 361.15274655 69.71484375 360.23046875 C53.679883 346.6775293 37.89408637 332.64425153 25 316 C24.18917969 314.95972656 23.37835938 313.91945313 22.54296875 312.84765625 C20.83391702 310.64691436 19.14080029 308.43497733 17.45703125 306.21484375 C15.94227657 304.21900818 14.40305161 302.26372793 12.82421875 300.31640625 C-21.83679598 256.65746813 -37.20738265 195.74485811 -37.25 140.9375 C-37.25101212 139.75722229 -37.25101212 139.75722229 -37.25204468 138.55310059 C-37.18538905 89.20800095 -23.70906645 43.09255451 0 0 Z " fill="#1C1C93" transform="translate(160,216)"/>
<path d="M0 0 C7.82141542 6.35186376 12.50703722 14.70041135 17.453125 23.29296875 C18.6223867 25.30729697 19.79165815 27.32161953 20.9609375 29.3359375 C23.53998048 33.79116634 26.10683734 38.25320399 28.66796875 42.71875 C32.01158261 48.5403035 35.40370241 54.33115228 38.828125 60.10546875 C45.63880012 71.59354488 52.3917453 83.11500407 59.14033508 94.63960266 C61.72112055 99.04591332 64.30681837 103.44931725 66.89453125 107.8515625 C71.09142905 114.99246093 75.27708339 122.139854 79.453125 129.29296875 C80.3817334 130.88214111 80.3817334 130.88214111 81.32910156 132.50341797 C83.02292852 135.4086411 84.70846005 138.31848138 86.390625 141.23046875 C86.88087158 142.07029297 87.37111816 142.91011719 87.8762207 143.77539062 C93.50006905 153.56516522 95.82951332 163.24723609 93.390625 174.48046875 C90.64328711 183.92983271 84.77144182 191.93482537 76.453125 197.29296875 C67.30889833 201.83155026 58.36592848 201.87027995 48.42211914 201.82641602 C46.72569533 201.83348608 45.02927783 201.84223564 43.33287048 201.8525238 C38.75424517 201.87490553 34.17596737 201.87210451 29.5973084 201.86320233 C25.76300253 201.85806941 21.92876065 201.86540361 18.09446138 201.87267441 C9.04346678 201.88963775 -0.00735908 201.88614354 -9.05834961 201.86938477 C-18.37034805 201.85246479 -27.68187764 201.86830439 -36.9938249 201.90060765 C-45.01373587 201.92736638 -53.03350145 201.93456268 -61.05345255 201.92609257 C-65.83248815 201.92118192 -70.61124182 201.92327761 -75.39024162 201.94388008 C-79.88604929 201.96233643 -84.38118645 201.95615802 -88.87695885 201.93168068 C-90.51834536 201.92670428 -92.15978385 201.93007928 -93.80112839 201.94282913 C-106.29970516 202.03217111 -117.37261243 200.30872345 -126.796875 191.31640625 C-133.20239577 183.91002286 -136.81831326 175.93347756 -136.921875 166.10546875 C-136.96441406 164.28982422 -136.96441406 164.28982422 -137.0078125 162.4375 C-136.33430097 151.99742746 -130.26468188 142.76526616 -125.109375 133.98046875 C-124.38921824 132.73859067 -123.66974665 131.49631504 -122.95092773 130.25366211 C-120.82897911 126.59258677 -118.69027022 122.9415189 -116.546875 119.29296875 C-115.97195313 118.31295898 -115.39703125 117.33294922 -114.8046875 116.32324219 C-112.19494043 111.88189824 -109.57221528 107.44842713 -106.94140625 103.01953125 C-103.03414199 96.43826561 -99.16504921 89.83474586 -95.296875 83.23046875 C-94.57300496 81.994869 -93.84912798 80.75927331 -93.12524414 79.52368164 C-91.66212205 77.02612955 -90.19918113 74.52847143 -88.73632812 72.03076172 C-86.9386247 68.96149979 -85.14025347 65.89263008 -83.34138489 62.8240509 C-82.63434548 61.61795119 -81.92738549 60.4118049 -81.22050476 59.20561218 C-79.46311061 56.20716264 -77.70429325 53.20956482 -75.94262695 50.21362305 C-72.64631005 44.60440261 -69.36419009 38.98822722 -66.12936401 33.34326172 C-64.61744032 30.70680285 -63.09782241 28.07481676 -61.57763672 25.44311523 C-60.86204797 24.19938428 -60.15014474 22.95352377 -59.44238281 21.70532227 C-48.47969547 2.37790362 -48.47969547 2.37790362 -38.296875 -2.20703125 C-37.30171875 -2.67109375 -36.3065625 -3.13515625 -35.28125 -3.61328125 C-23.83735981 -8.19083733 -10.192158 -6.831247 0 0 Z M-21.546875 41.29296875 C-22.77736834 43.15144461 -23.95565383 45.04450219 -25.11328125 46.94921875 C-25.47063858 47.53626587 -25.82799591 48.12331299 -26.19618225 48.72814941 C-30.02724002 55.04273693 -33.76233589 61.41370069 -37.484375 67.79296875 C-38.22250017 69.05542981 -38.9607853 70.31779736 -39.69921875 71.58007812 C-41.22570999 74.18974678 -42.75152844 76.79980696 -44.27685547 79.41015625 C-47.51080586 84.94331744 -50.75321111 90.47151897 -53.99536133 95.99987793 C-55.75377465 98.99840744 -57.51163764 101.99725953 -59.26953125 104.99609375 C-59.61875641 105.5918219 -59.96798157 106.18755005 -60.32778931 106.80133057 C-62.52338004 110.54674634 -64.71868595 114.29232893 -66.91377258 118.03804016 C-67.66436795 119.31881837 -68.41500855 120.59957008 -69.16569519 121.8802948 C-70.98678675 124.9872202 -72.80736832 128.09444153 -74.62670898 131.20239258 C-77.68074593 136.41779603 -80.74065455 141.62924509 -83.8359375 146.8203125 C-84.31297119 147.62243164 -84.79000488 148.42455078 -85.28149414 149.25097656 C-86.13629111 150.68616794 -86.99458077 152.11928778 -87.85717773 153.54980469 C-89.88808704 156.70215006 -89.88808704 156.70215006 -90.546875 160.29296875 C-44.676875 160.29296875 1.193125 160.29296875 48.453125 160.29296875 C45.05416335 153.49504545 41.60078396 146.97187154 37.703125 140.48046875 C36.54630948 138.53809711 35.39009026 136.59537025 34.234375 134.65234375 C33.62207031 133.62431641 33.00976562 132.59628906 32.37890625 131.53710938 C28.96281476 125.7824157 25.58428093 120.0057261 22.203125 114.23046875 C21.48018479 112.99631354 20.75720274 111.76218285 20.03417969 110.52807617 C18.57014151 108.02907147 17.10629166 105.52995659 15.64257812 103.03076172 C13.49172425 99.35855759 11.3397814 95.68699259 9.1875 92.015625 C8.83713684 91.4179129 8.48677368 90.82020081 8.12579346 90.20437622 C6.37262343 87.21365363 4.61892211 84.2232446 2.86425781 81.23339844 C-0.48136666 75.53133387 -3.82124017 69.82607987 -7.14489746 64.11117554 C-8.72828038 61.38927361 -10.31434525 58.66893924 -11.90063477 55.94873047 C-12.66158854 54.64206182 -13.42120365 53.33461263 -14.17944336 52.02636719 C-15.22570492 50.22136278 -16.27640008 48.41901233 -17.328125 46.6171875 C-18.2262793 45.07164185 -18.2262793 45.07164185 -19.14257812 43.49487305 C-19.60599609 42.76824463 -20.06941406 42.04161621 -20.546875 41.29296875 C-20.876875 41.29296875 -21.206875 41.29296875 -21.546875 41.29296875 Z " fill="#000000" transform="translate(424.546875,231.70703125)"/>
<path d="M0 0 C1.49465286 -0.00101212 1.49465286 -0.00101212 3.01950073 -0.00204468 C85.43023312 0.08622572 168.23964928 27.88837916 231.625 81.25 C232.46675781 81.91902344 233.30851562 82.58804688 234.17578125 83.27734375 C249.45774712 95.4349966 264.01428849 109.34643185 276.625 124.25 C277.41003906 125.14589844 278.19507813 126.04179687 279.00390625 126.96484375 C305.67872102 157.59920134 328.65850975 194.5568851 341.86816406 233.0546875 C342.76562885 235.65791439 343.69160792 238.25038899 344.6171875 240.84375 C357.625 277.48854777 357.625 277.48854777 357.625 290.25 C353.64614253 291.20962008 349.66685849 292.1674599 345.6875 293.125 C344.57052734 293.39441406 343.45355469 293.66382813 342.30273438 293.94140625 C339.07819461 294.71680877 335.85168389 295.48357899 332.625 296.25 C331.33118408 296.56759277 331.33118408 296.56759277 330.01123047 296.89160156 C325.78629953 297.89665121 322.00523595 298.47462748 317.625 298.25 C317.41746094 297.21746094 317.20992187 296.18492187 316.99609375 295.12109375 C310.42757402 263.47812393 299.41384587 230.29760092 281.09106445 203.41992188 C279.33365655 200.81878259 277.69040321 198.15912423 276.05151367 195.48242188 C264.96477064 177.39025603 252.01399464 160.84016288 237.625 145.25 C236.71886355 144.24195253 235.81398141 143.23277657 234.91015625 142.22265625 C230.39800018 137.20068716 225.87078332 132.34179248 220.68359375 128 C218.27463541 125.95215685 215.99312567 123.78847431 213.6875 121.625 C158.1338235 71.12165772 82.93948779 44.69360985 8.625 42.25 C7.44292969 42.20746094 6.26085937 42.16492188 5.04296875 42.12109375 C-9.60225892 41.86535636 -24.76196498 42.69869952 -39.25 44.81640625 C-43.01015244 45.3381274 -46.58115313 45.31655872 -50.375 45.25 C-50.48046143 44.54093506 -50.58592285 43.83187012 -50.69458008 43.10131836 C-53.60634122 23.59935085 -53.60634122 23.59935085 -57.375 4.25 C-53.62554135 3.76653632 -49.87534303 3.28905068 -46.125 2.8125 C-45.08085938 2.67779297 -44.03671875 2.54308594 -42.9609375 2.40429688 C-28.5950367 0.58638967 -14.46834659 0.00882225 0 0 Z " fill="#000000" transform="translate(731.375,280.75)"/>
<path d="M0 0 C19.94052886 9.81952609 37.64821105 24.60732026 53.66015625 39.84765625 C56.14629642 42.21228554 58.68328744 44.48150073 61.3125 46.6875 C92.25575356 73.58024183 121.72869408 122.76152399 129 163 C127.824375 163.061875 126.64875 163.12375 125.4375 163.1875 C120.57359676 163.73459543 116.23891557 165.16340481 111.63427734 166.7800293 C105.34913236 168.95460105 98.97347874 170.73601123 92.5625 172.5 C84.04700762 174.84444914 75.60139588 177.30810232 67.20703125 180.0546875 C64.14061522 180.95855191 61.16172458 181.54901045 58 182 C57.81526123 181.44876465 57.63052246 180.8975293 57.44018555 180.32958984 C48.53082269 154.06443078 36.36167086 129.95588857 18 109 C17.30777344 108.19820313 16.61554687 107.39640625 15.90234375 106.5703125 C13.6437454 104.00428244 11.33692637 101.49492611 9 99 C8.54173828 98.50773926 8.08347656 98.01547852 7.61132812 97.50830078 C-5.25019309 83.80557118 -20.25981391 73.14978521 -36 63 C-34.63527177 59.36739655 -33.0019884 56.09038593 -31.05078125 52.73828125 C-30.45692627 51.71379883 -29.86307129 50.68931641 -29.2512207 49.63378906 C-28.61144287 48.53776367 -27.97166504 47.44173828 -27.3125 46.3125 C-26.30452798 44.57695165 -25.29656249 42.84139946 -24.28898621 41.10562134 C-23.59168876 39.90482089 -22.89393904 38.70428298 -22.195755 37.5039978 C-19.7210338 33.24871786 -17.26245759 28.98442284 -14.8125 24.71484375 C-14.13503757 23.53538442 -13.45754772 22.35594084 -12.7800293 21.17651367 C-11.49379782 18.93650142 -10.20875393 16.69580672 -8.92504883 14.4543457 C-6.0906146 9.52741266 -3.24416509 4.66902171 0 0 Z " fill="#131365" transform="translate(543,114)"/>
<path d="M0 0 C3.63260345 1.36472823 6.90961407 2.9980116 10.26171875 4.94921875 C11.79844238 5.84000122 11.79844238 5.84000122 13.36621094 6.7487793 C14.46223633 7.38855713 15.55826172 8.02833496 16.6875 8.6875 C18.42304835 9.69547202 20.15860054 10.70343751 21.89437866 11.71101379 C23.09517911 12.40831124 24.29571702 13.10606096 25.4960022 13.804245 C29.75128214 16.2789662 34.01557716 18.73754241 38.28515625 21.1875 C39.46461558 21.86496243 40.64405916 22.54245228 41.82348633 23.2199707 C44.06349858 24.50620218 46.30419328 25.79124607 48.5456543 27.07495117 C53.47258734 29.9093854 58.33097829 32.75583491 63 36 C62.39270886 40.55468355 60.49915865 44.18509624 58.375 48.1875 C47.94236529 68.50393132 42.05226103 89.56118169 38.40136719 112.02319336 C38 114 38 114 37 116 C30.49006745 116.12575509 24.21023816 115.82670448 17.7578125 114.9765625 C16.48513016 114.81720718 16.48513016 114.81720718 15.18673706 114.65463257 C12.49872108 114.31720988 9.81183917 113.9716576 7.125 113.625 C3.60720648 113.17619596 0.08894671 112.73122571 -3.4296875 112.2890625 C-4.29261414 112.18031799 -5.15554077 112.07157349 -6.0446167 111.95953369 C-15.34618539 110.80411714 -24.66953973 109.88676373 -34 109 C-34.6867946 104.8811192 -35.15818107 101.29112158 -34.46875 97.1640625 C-34.32147461 96.27775146 -34.17419922 95.39144043 -34.02246094 94.47827148 C-33.85004883 93.53669189 -33.67763672 92.5951123 -33.5 91.625 C-33.31985352 90.62476807 -33.13970703 89.62453613 -32.95410156 88.59399414 C-27.29515276 58.67079237 -17.08665443 25.62998164 0 0 Z " fill="#3232FD" transform="translate(160,216)"/>
<path d="M0 0 C0.33 0 0.66 0 1 0 C1 1.98 1 3.96 1 6 C2.27093506 5.9788916 3.54187012 5.9577832 4.85131836 5.93603516 C10.07809765 5.93871154 15.18975948 6.43526276 20.37890625 7.0234375 C21.34924301 7.12967438 22.31957977 7.23591125 23.31932068 7.34536743 C26.40090156 7.68403667 29.48167376 8.02954104 32.5625 8.375 C34.60216742 8.59937801 36.64188068 8.82333966 38.68164062 9.046875 C49.80006904 10.27166963 60.90615547 11.56886268 72 13 C71.98428955 14.09127197 71.9685791 15.18254395 71.95239258 16.30688477 C71.4480957 46.2873599 71.4480957 46.2873599 75 76 C75.14405273 76.75490723 75.28810547 77.50981445 75.43652344 78.28759766 C76.20489402 82.21395393 77.05010789 86.11285284 78 90 C76.94683594 90.24234375 75.89367187 90.4846875 74.80859375 90.734375 C65.83736677 92.81312507 56.92508522 95.04047502 48.03662109 97.45263672 C45.80428666 98.05260001 43.56867475 98.63896577 41.33203125 99.22265625 C40.52773682 99.4326123 39.72344238 99.64256836 38.89477539 99.85888672 C37.26515203 100.28406217 35.63543291 100.7088708 34.00561523 101.13330078 C27.95320974 102.72055414 21.96059885 104.4579397 15.98046875 106.30078125 C12.8848841 107.02700622 10.16785628 107.1278507 7 107 C4.60379997 100.47884835 3.07881197 94.03362132 1.9375 87.1875 C1.76831055 86.17324951 1.59912109 85.15899902 1.42480469 84.11401367 C0.9319771 81.07847109 0.46004102 78.04067156 0 75 C-0.12294434 74.19723633 -0.24588867 73.39447266 -0.37255859 72.56738281 C-3.78603821 49.08631677 -3.5475058 23.43887759 0 0 Z " fill="#2424BD" transform="translate(125,319)"/>
<path d="M0 0 C1.07314453 1.07701172 1.07314453 1.07701172 2.16796875 2.17578125 C3.99344808 3.99622478 5.82871155 5.80693519 7.67578125 7.60546875 C8.98095703 8.88357422 8.98095703 8.88357422 10.3125 10.1875 C11.63701172 11.47720703 11.63701172 11.47720703 12.98828125 12.79296875 C15 15 15 15 15 17 C15.59425781 17.26167969 16.18851562 17.52335937 16.80078125 17.79296875 C19.13388034 19.07347962 20.41270188 20.34378094 22.1875 22.3125 C32.56161719 32.93775969 45.39382892 41.26848144 58 49 C57.32313971 52.48616154 55.93012425 55.17749011 54.19140625 58.26171875 C53.61422852 59.28974609 53.03705078 60.31777344 52.44238281 61.37695312 C51.82202148 62.46943359 51.20166016 63.56191406 50.5625 64.6875 C49.92795898 65.81220703 49.29341797 66.93691406 48.63964844 68.09570312 C43.92451408 76.42998305 39.11948675 84.70625431 34.22070312 92.93359375 C32.87722729 95.20782964 31.55455956 97.49341974 30.234375 99.78125 C29.77708008 100.57015625 29.31978516 101.3590625 28.84863281 102.171875 C27.96898412 103.6903996 27.09314595 105.21113985 26.22167969 106.734375 C23.22458375 111.88770812 23.22458375 111.88770812 21 113 C19.1875 112.13891602 19.1875 112.13891602 17 110.75390625 C16.20037842 110.25052734 15.40075684 109.74714844 14.5769043 109.22851562 C13.72652588 108.67873047 12.87614746 108.12894531 12 107.5625 C10.69832886 106.7281543 10.69832886 106.7281543 9.37036133 105.87695312 C3.26322096 101.91903544 -2.49434104 97.7656984 -8 93 C-9.0942257 92.07584357 -10.18934666 91.15274655 -11.28515625 90.23046875 C-47.88966128 59.29190595 -47.88966128 59.29190595 -54 48 C-52.79936908 44.39810723 -51.60185363 43.65694143 -48.625 41.375 C-47.71234375 40.66472656 -46.7996875 39.95445312 -45.859375 39.22265625 C-44.91578125 38.48917969 -43.9721875 37.75570312 -43 37 C-41.28687264 35.61005464 -39.57860403 34.2141015 -37.875 32.8125 C-33.34041333 29.09541628 -28.79849494 25.38755404 -24.25 21.6875 C-23.5794458 21.14085693 -22.9088916 20.59421387 -22.21801758 20.03100586 C-18.72748419 17.19144012 -15.2196833 14.37822541 -11.67578125 11.60546875 C-10.98516602 11.06253174 -10.29455078 10.51959473 -9.58300781 9.96020508 C-8.26265452 8.92431166 -6.93794382 7.89394192 -5.60839844 6.86987305 C-1.97309263 4.06518551 -1.97309263 4.06518551 0 0 Z " fill="#131365" transform="translate(241,486)"/>
<path d="M0 0 C3.15283008 1.34558209 4.74337579 2.6134908 6.62890625 5.46484375 C7.10086426 6.17229736 7.57282227 6.87975098 8.05908203 7.60864258 C8.80327393 8.761427 8.80327393 8.761427 9.5625 9.9375 C10.34923096 11.14152466 10.34923096 11.14152466 11.15185547 12.36987305 C26.19334573 35.62341154 42.01553278 62.41659657 47 90 C45.824375 90.061875 44.64875 90.12375 43.4375 90.1875 C38.57359676 90.73459543 34.23891557 92.16340481 29.63427734 93.7800293 C23.34913236 95.95460105 16.97347874 97.73601123 10.5625 99.5 C2.04700762 101.84444914 -6.39860412 104.30810232 -14.79296875 107.0546875 C-17.85938478 107.95855191 -20.83827542 108.54901045 -24 109 C-24.18473877 108.44876465 -24.36947754 107.8975293 -24.55981445 107.32958984 C-31.18459442 87.79947278 -39.29687957 69.54642401 -51.20410156 52.63183594 C-51.68588867 51.94637695 -52.16767578 51.26091797 -52.6640625 50.5546875 C-53.09154785 49.96155762 -53.5190332 49.36842773 -53.95947266 48.75732422 C-55.08595571 46.85483126 -55.5700886 45.15904468 -56 43 C-46.93157777 35.86392366 -37.81755648 28.80872278 -28.5 22 C-13.66821783 11.69454886 -13.66821783 11.69454886 0 0 Z " fill="#1C1C93" transform="translate(625,187)"/>
<path d="M0 0 C2.05252856 0.28454056 4.0921589 0.66076142 6.125 1.0625 C6.80876709 1.1960791 7.49253418 1.3296582 8.19702148 1.46728516 C9.82461334 1.78525897 11.45177151 2.10545661 13.07861328 2.42724609 C16.43419493 3.0851263 19.79303802 3.72469189 23.15234375 4.36328125 C38.81916652 7.35140999 54.43703245 10.50402206 70 14 C70.43119149 20.54126664 68.86277107 26.17752162 67.0625 32.4375 C66.59541626 34.07609985 66.59541626 34.07609985 66.11889648 35.74780273 C61.00882251 53.23201308 54.526276 69.9126868 46 86 C44.81982594 88.32682398 43.66028742 90.66312136 42.5 93 C41.66666667 94.66666667 40.83333333 96.33333333 40 98 C36.19439766 97.41933397 33.473423 96.33578266 30.17578125 94.3671875 C29.24193604 93.81538818 28.30809082 93.26358887 27.34594727 92.69506836 C26.34490967 92.0944458 25.34387207 91.49382324 24.3125 90.875 C22.16188072 89.60215064 20.01082299 88.33004186 17.859375 87.05859375 C16.73982422 86.39456543 15.62027344 85.73053711 14.46679688 85.04638672 C8.69253437 81.62999573 2.87587157 78.28672979 -2.9375 74.9375 C-4.00766357 74.3192334 -5.07782715 73.7009668 -6.18041992 73.06396484 C-12.09059501 69.65437388 -18.02185757 66.28906493 -24 63 C-23.21247579 58.50580445 -21.56145106 54.93779124 -19.4375 50.9375 C-11.51030655 35.4699371 -5.92533554 19.52063027 -1.53735352 2.72387695 C-1 1 -1 1 0 0 Z " fill="#3232FD" transform="translate(607,398)"/>
</svg>
