<?xml version="1.0" encoding="UTF-8"?>
<!-- Uploaded to: SVG Find, www.svgrepo.com, Generator: SVG Find Mixer Tools -->
<svg fill="#000000" width="800px" height="800px" version="1.1" viewBox="144 144 512 512" xmlns="http://www.w3.org/2000/svg">
 <g>
  <path d="m242.35 510.7c2.4023 0 4.9141-0.64453 7.543-2.0312l54.223-31.293c4.7461-2.7617 7.4609-6.957 7.4609-11.516 0-4.5586-2.7305-8.7461-7.4844-11.508l-54.488-31.441c-2.3477-1.2188-4.8477-1.8672-7.2578-1.8672-7.1641 0-12.359 5.375-12.359 12.785v64.062c-0.007812 7.4141 5.1953 12.809 12.363 12.809zm3.3711-71.848 46.785 27.047-46.785 26.977z"/>
  <path d="m334.61 532.31h-102.41c-0.35547-4.0234-3.6211-7.1953-7.7305-7.1953-4.1094 0-7.3828 3.1719-7.7305 7.1953h-9.7539c-4.3516 0-7.8711 3.5195-7.8711 7.8711 0 4.3516 3.5195 7.8711 7.8711 7.8711h9.7461c0.36328 4.0156 3.6289 7.1875 7.7305 7.1875s7.375-3.1719 7.7305-7.1875h102.41c4.3516 0 7.8711-3.5195 7.8711-7.8711 0-4.3516-3.5117-7.8711-7.8633-7.8711z"/>
  <path d="m620.72 293.06h-38.895v-58.129c0-10.492-8.918-19.027-19.875-19.027h-67.375l-0.003906-4.8633c0-7.9727-6.4883-14.453-14.469-14.453h-32.496c-2.75-22.844-22.238-40.621-45.809-40.621-23.594 0-43.113 17.773-45.855 40.621h-32.48c-7.9883 0-14.484 6.4805-14.484 14.453v4.8633h-67.328c-10.988 0-19.926 8.5352-19.926 19.027v143.63h-41.453c-7.9023 0-14.328 6.4297-14.328 14.336v181c0 7.918 6.4219 14.359 14.328 14.359h41.453v36.746c0 10.484 8.9414 19.02 19.926 19.02h320.3c10.965 0 19.875-8.5352 19.875-19.02l0.003906-152.28h38.895c7.3516 0 13.328-5.9922 13.328-13.344v-152.96c0-7.3672-5.9766-13.363-13.328-13.363zm-2.418 118.25-35.961-43.004c-1.457-1.7383-3.582-2.7617-5.8398-2.8164-2.332-0.046875-4.4336 0.85938-5.9766 2.5195l-36.637 39.516-25.441-22.199c-3.125-2.7383-7.8633-2.5664-10.793 0.41797l-27.48 28v-104.94h148.14v102.5zm-293.58-198.98h38.762c4.3516 0 7.8711-3.5195 7.8711-7.8711v-2.3359c0-16.766 13.648-30.41 30.441-30.41 16.758 0 30.395 13.641 30.395 30.41v2.3359c0 4.3516 3.5195 7.8711 7.8711 7.8711h38.762v41.398h-154.1zm-143.04 181.98h178.21v178.21h-178.21zm384.39 230.7c0 1.7773-1.8906 3.2734-4.1328 3.2734l-320.3 0.003906c-2.2266 0-4.1797-1.5273-4.1797-3.2734v-36.746h123.82c7.918 0 14.359-6.4375 14.359-14.359l-0.003906-181c0-7.9023-6.4375-14.336-14.359-14.336h-123.82v-143.64c0-1.7461 1.9531-3.2812 4.1797-3.2812h67.328v23.348c0 7.9805 6.4961 14.477 14.484 14.477h156.64c7.9805 0 14.469-6.4961 14.469-14.477v-23.348h67.375c2.2422 0 4.1328 1.5039 4.1328 3.2812v58.129h-98.32c-7.3516 0-13.328 6-13.328 13.367v152.96c0 7.3594 5.9844 13.344 13.328 13.344h98.32zm-95.914-168.03v-20.789l33.52-34.148 25.609 22.34c3.1797 2.793 8.0391 2.543 10.949-0.57422l35.754-38.559 42.312 50.594v21.145h-148.14z"/>
  <path d="m531.5 373.6c12.809 0 23.23-10.414 23.23-23.223 0-12.793-10.422-23.199-23.23-23.199-12.793 0-23.199 10.406-23.199 23.199 0 12.797 10.406 23.223 23.199 23.223zm0-30.688c4.125 0 7.4844 3.3438 7.4844 7.4531 0 4.125-3.3633 7.4766-7.4844 7.4766-4.1094 0-7.4531-3.3516-7.4531-7.4766 0-4.1055 3.3438-7.4531 7.4531-7.4531z"/>
  <path d="m401.8 188.55c-4.3516 0-7.8711 3.5273-7.8711 7.8789 0 4.3516 3.5195 7.8711 7.8711 7.8711 4.3516 0 7.8711-3.5195 7.8711-7.8711v-0.019532c0-4.3555-3.5234-7.8594-7.8711-7.8594z"/>
  <path d="m287 313.36h116.08c4.3516 0 7.8711-3.5195 7.8711-7.8711 0-4.3516-3.5195-7.8711-7.8711-7.8711l-116.08-0.003907c-4.3516 0-7.8711 3.5195-7.8711 7.8711 0 4.3555 3.5234 7.875 7.8711 7.875z"/>
  <path d="m410.96 343.49c0-4.3516-3.5195-7.8711-7.8711-7.8711h-116.09c-4.3516 0-7.8711 3.5195-7.8711 7.8711 0 4.3516 3.5195 7.8711 7.8711 7.8711h116.08c4.3516 0 7.8789-3.5156 7.8789-7.8711z"/>
  <path d="m395.22 516.44c0 4.3516 3.5195 7.8711 7.8711 7.8711h116.07c4.3516 0 7.8711-3.5195 7.8711-7.8711 0-4.3516-3.5195-7.8711-7.8711-7.8711h-116.06c-4.3555 0-7.875 3.5195-7.875 7.8711z"/>
  <path d="m519.16 546.58h-116.06c-4.3516 0-7.8711 3.5195-7.8711 7.8711s3.5195 7.8711 7.8711 7.8711h116.07c4.3516 0 7.8711-3.5195 7.8711-7.8711s-3.5273-7.8711-7.875-7.8711z"/>
 </g>
</svg>